<svg width="350" height="350" viewBox="0 0 350 350" fill="none" xmlns="http://www.w3.org/2000/svg">
<path d="M349.695 134.893C350.19 144.41 347.919 154.762 345.509 165.073C342.1 179.655 337.33 193.765 330.333 207.058C328.251 211.014 325.968 214.854 323.469 218.558C323.008 219.242 323.032 219.668 323.513 220.335C324.932 222.305 325.436 224.663 325.992 226.961C327.447 232.981 327.222 239.079 326.9 245.215C326.607 250.8 324.98 256.029 323.548 261.351C322.211 266.326 320.925 271.304 319.17 276.156C318.419 278.232 317.964 280.414 317.316 282.529C312.243 299.104 302.908 312.795 289.478 323.736C287.239 325.561 285.389 327.815 283.104 329.625C269.434 340.446 254.124 347.537 236.708 349.336C215.202 351.558 196.038 345.922 180.188 330.816C169.308 320.448 162.98 307.538 160.261 292.835C157.815 279.606 158.622 266.505 162.452 253.644C169.811 228.925 184.543 209.748 206.518 196.291C219.786 188.166 234.258 183.723 249.915 183.543C255.33 183.481 260.688 184.064 265.985 185.182C266.733 185.339 267.214 185.272 267.723 184.589C278.36 170.307 286.026 154.528 291.301 137.573C295.356 124.544 297.592 111.198 297.412 97.5227C297.338 91.9233 296.66 86.3431 295.25 80.9183C293.347 73.5984 291.104 66.3972 286.476 60.197C281.256 53.205 274.581 48.1206 266.52 44.895C263.787 43.8012 260.778 43.671 257.866 43.4404C248.36 42.6875 238.86 43.1291 229.441 44.4195C225.161 45.0054 220.799 45.4057 216.622 46.622C210.453 48.4188 204.457 50.7229 198.493 53.1127C192.766 55.407 187.864 59.1075 182.7 62.338C175.645 66.7525 169.558 72.3936 163.726 78.3017C159.255 82.8303 154.826 87.3952 151.176 92.6399C149.038 95.7123 147.028 98.8637 145.308 102.195C143.422 105.847 143.8 109.347 146.325 112.463C160.028 129.379 164.494 148.88 162.25 170.123C159.823 193.111 150.5 213.153 135.292 230.451C123.869 243.443 110.14 253.154 93.467 258.222C78.1223 262.888 62.9603 262.53 48.2558 255.55C42.9705 253.041 38.292 249.645 34.0829 245.595C33.5168 245.051 32.9253 244.627 32.1434 244.45C31.1094 244.216 30.2094 243.668 29.3148 243.119C18.4163 236.422 10.9751 226.828 6.07585 215.168C0.868493 202.774 -0.767903 189.795 0.318822 176.472C1.8377 157.85 8.05545 140.913 19.1785 125.872C27.5983 114.486 38.0712 105.56 51.2634 100.086C57.7552 97.3926 64.5122 95.6085 71.5641 95.7644C74.8654 95.838 78.0361 95.3498 81.2578 94.9863C81.981 94.905 82.3714 94.5827 82.7091 93.9485C93.1579 74.3309 107.621 58.0428 124.463 43.7441C133.349 36.2013 142.689 29.2768 152.768 23.3935C169.149 13.8315 186.465 6.60012 205.081 2.70297C217.418 0.120979 229.879 -0.682942 242.438 0.602567C251.718 1.55255 260.591 3.97804 269.159 7.72638C278.23 11.6954 286.73 16.5288 294.768 22.3331C300.547 26.5059 305.369 31.6078 310.201 36.6988C322.72 49.8849 332.304 65.0705 339.214 81.8331C343.587 92.4395 346.567 103.529 348.198 114.935C349.089 121.161 349.639 127.41 349.695 134.893ZM25.5423 194.536C25.5099 198.412 25.7713 202.262 26.3847 206.088C27.9525 215.866 31.2752 224.918 37.4523 232.781C46.3899 244.158 58.2263 249.747 72.5657 250.189C79.1079 250.391 85.4795 249.215 91.678 247.176C106.16 242.413 117.977 233.681 127.804 222.239C141.318 206.506 149.416 188.341 151.391 167.592C152.425 156.735 151.286 146.13 147.371 135.897C144.156 127.494 139.256 120.263 132.163 114.648C123.398 107.709 113.306 104.692 102.218 105.033C90.0619 105.408 79.0212 109.43 68.9074 115.991C52.7301 126.485 41.1452 140.892 33.4075 158.458C28.3495 169.943 25.6275 181.959 25.5423 194.536ZM220.119 293.98C220.054 297.545 220.477 301.05 221.384 304.489C223.459 312.356 227.423 318.928 234.532 323.265C241.784 327.689 249.682 328.429 257.824 326.9C269.157 324.77 278.692 319.103 286.971 311.258C294.206 304.401 299.904 296.406 303.838 287.222C307.741 278.11 309.83 268.659 308.863 258.671C308.36 253.477 306.968 248.565 304.396 244.018C301.525 238.94 297.495 235.034 292.219 232.518C285.457 229.294 278.324 228.921 271.104 230.319C259.862 232.495 250.432 238.182 242.212 245.956C235.118 252.664 229.564 260.51 225.609 269.455C222.155 277.264 220.128 285.4 220.119 293.98ZM311.194 54.4295C311.094 54.5997 311.014 54.6744 311.026 54.7266C311.09 54.9973 311.161 55.2691 311.262 55.5278C315.324 65.8799 318.048 76.5719 319.152 87.639C319.959 95.7326 320.087 103.847 319.513 111.978C319.017 119.009 318.065 125.972 316.686 132.871C313.76 147.501 308.93 161.503 302.463 174.941C298.955 182.23 294.954 189.23 290.491 195.986C286.678 201.757 283.11 207.689 278.73 213.07C277.498 214.584 276.278 216.108 275.035 217.651C275.488 217.935 275.848 217.812 276.188 217.767C279.002 217.398 281.846 217.365 284.604 217.919C291.943 219.395 298.992 221.707 305.265 225.954C305.819 226.329 306.159 226.302 306.574 225.799C307.83 224.278 309.136 222.8 310.381 221.272C319.423 210.161 326.468 197.887 331.727 184.576C335.613 174.739 338.325 164.583 339.928 154.131C340.924 147.639 341.376 141.096 341.348 134.541C341.323 128.674 340.92 122.818 340.038 116.998C338.725 108.332 336.637 99.8694 333.226 91.7981C328.101 79.6745 321.817 68.1796 313.871 57.6446C313.042 56.5464 312.314 55.3356 311.194 54.4295ZM311.996 101.408C312.08 97.0049 311.665 91.8398 311.025 86.6841C310.211 80.1303 309.058 73.6423 307.087 67.3334C302.175 51.613 294.363 37.6477 282.054 26.4532C280.152 24.724 278.277 22.9481 276.013 21.6659C271.657 19.1992 267.065 17.2641 262.366 15.5613C250.324 11.1974 237.899 9.61314 225.13 10.2276C217.634 10.5884 210.249 11.6438 202.957 13.3395C188.471 16.7084 174.811 22.1524 161.979 29.6974C150.04 36.7174 138.885 44.7874 128.769 54.2587C121.03 61.5056 113.897 69.3015 107.535 77.8036C103.772 82.8331 100.213 87.9948 96.8508 93.2961C96.6866 93.5547 96.3615 93.7876 96.5235 94.1472C96.6465 94.4207 96.9364 94.3175 97.1671 94.2999C98.8089 94.1769 100.449 94.0215 102.093 93.9391C102.673 93.91 102.916 93.6371 103.166 93.1649C107.252 85.4348 111.756 78.0304 118.1 71.8407C123.402 66.6668 128.676 61.4781 134.386 56.7468C144.833 48.0899 156.047 40.5866 168.013 34.1937C178.303 28.6964 189.133 24.4846 200.144 20.7263C208.423 17.9 216.91 15.9649 225.665 15.3103C231.793 14.8529 237.874 14.9863 243.899 16.3322C248.018 17.2531 251.735 19.2338 255.634 20.728C260.792 22.7043 265.796 25.0996 270.379 28.1511C275.821 31.7742 280.457 36.3847 284.729 41.3477C292.991 50.9475 298.472 61.9926 301.816 74.1404C304.685 84.5617 305.743 95.1977 305.51 105.993C305.406 110.785 305.051 115.556 304.405 120.291C303.1 129.868 300.957 139.255 297.805 148.415C294.657 157.568 290.866 166.424 286.317 174.967C279.861 187.091 272.122 198.328 263.165 208.731C262.647 209.334 262.787 209.645 263.273 210.106C264.411 211.186 265.554 212.269 266.615 213.424C267.286 214.156 267.714 213.962 268.238 213.304C271.763 208.888 275.67 204.779 278.567 199.86C280.63 196.357 283.388 193.288 285.569 189.883C295.832 173.858 303.023 156.486 307.591 138.019C310.501 126.255 312.036 114.327 311.996 101.408ZM240.397 337.57C239.589 337.326 238.772 337.168 237.916 337.199C235.298 337.294 232.686 337.264 230.076 336.989C218.8 335.797 208.769 331.698 200.478 323.881C189.195 313.243 184.139 299.838 183.672 284.552C183.48 278.251 184.24 272.042 185.733 265.894C187.186 259.911 189.277 254.191 192.037 248.708C198.593 235.686 207.833 224.967 219.806 216.641C229.413 209.963 239.967 205.619 251.598 204.022C252.404 203.911 253.029 203.598 253.548 202.968C255.39 200.732 257.26 198.518 259.111 196.289C259.312 196.048 259.641 195.793 259.538 195.465C259.404 195.03 258.933 195.159 258.597 195.119C254.35 194.62 250.1 194.535 245.826 194.828C236.715 195.454 228.062 197.797 219.828 201.676C207.949 207.272 197.869 215.204 189.578 225.387C181.643 235.133 175.889 246.014 172.673 258.192C169.342 270.807 168.9 283.463 172.349 296.129C175.884 309.11 182.81 319.894 193.756 327.82C207.802 337.989 223.576 340.402 240.397 337.57ZM264.131 33.9197C263.897 33.2398 263.396 33.096 262.989 32.884C256.025 29.2554 248.994 25.9145 241.094 24.6356C234.178 23.5159 227.305 22.9278 220.339 23.8536C214.714 24.601 209.214 25.9348 203.721 27.3131C199.806 28.2955 196.165 30.028 192.381 31.3635C185.46 33.806 178.743 36.6565 172.264 40.1111C160.405 46.4348 149.707 54.3581 139.841 63.439C134.628 68.2373 129.576 73.1959 124.931 78.5576C120.954 83.1483 117.094 87.8329 113.381 92.6394C112.81 93.379 112.569 93.8754 113.862 93.9243C114.456 93.9463 115.048 94.1335 115.63 94.2878C121.078 95.7326 126.402 97.542 131.549 99.8414C132.544 100.286 133.084 100.219 133.573 99.1361C134.399 97.3058 135.32 95.5058 136.633 93.9534C137.704 92.6866 138.537 91.2797 139.309 89.8108C144.173 80.5575 150.408 72.3975 158.603 65.8151C162.469 62.7092 166.761 60.2189 170.798 57.3607C180.982 50.1485 192.018 44.5656 203.781 40.4773C211.326 37.8547 218.98 35.6576 227.025 34.868C231.686 34.4111 236.334 33.655 241.009 33.1789C244.357 32.8379 247.679 33.2591 251.014 33.2558C255.216 33.2514 259.413 33.37 263.582 33.968C263.731 33.9888 263.889 33.9427 264.131 33.9197ZM216.693 321.783C216.84 321.172 216.568 320.947 216.4 320.683C214.565 317.782 213.045 314.727 211.93 311.474C209.169 303.419 208.523 295.175 209.449 286.729C210.364 278.389 212.823 270.539 216.402 263.002C221.047 253.221 227.339 244.662 235.297 237.299C239.214 233.674 243.439 230.497 247.973 227.705C251.342 225.631 254.911 223.961 258.554 222.44C259.229 222.159 259.482 221.919 258.831 221.289C256.92 219.442 255.043 217.56 253.176 215.668C252.723 215.21 252.229 215.123 251.639 215.217C246.328 216.067 241.222 217.576 236.345 219.868C226.571 224.461 218.266 230.933 211.38 239.244C204.531 247.508 199.554 256.743 196.82 267.156C194.444 276.209 193.914 285.322 196.019 294.489C198.167 303.845 202.746 311.757 210.326 317.787C212.268 319.331 214.337 320.7 216.693 321.783ZM58.9534 109.33C58.882 109.251 58.8111 109.173 58.7398 109.095C58.3268 109.229 57.9095 109.35 57.502 109.499C46.866 113.387 38.2738 120.127 31.0193 128.662C26.0162 134.548 22.0307 141.098 18.8403 148.137C14.4088 157.914 11.8729 168.17 11.225 178.862C10.7632 186.479 11.2546 194.058 13.1387 201.494C13.7328 203.84 14.3808 206.176 15.4373 208.388C12.6686 189.109 15.8102 170.72 23.7132 153.077C31.6157 135.436 43.295 120.778 58.9534 109.33ZM316.646 228.822C315.334 230.331 314.077 231.77 312.832 233.218C312.518 233.583 312.755 233.883 312.997 234.173C315.865 237.629 318.095 241.404 318.924 245.917C319.189 240.127 319.289 234.373 316.646 228.822ZM310.88 54.2093L310.922 54.1302L310.85 54.1242L310.88 54.2093Z" fill="#222222"/>
<path d="M25.5426 194.537C25.6272 181.96 28.3497 169.944 33.4083 158.46C41.146 140.894 52.7309 126.486 68.9076 115.993C79.022 109.432 90.0627 105.41 102.219 105.035C113.307 104.693 123.398 107.71 132.163 114.649C139.257 120.265 144.156 127.496 147.372 135.898C151.287 146.132 152.426 156.736 151.392 167.593C149.416 188.342 141.319 206.507 127.805 222.241C117.977 233.683 106.161 242.414 91.6788 247.178C85.4797 249.217 79.1082 250.392 72.5665 250.191C58.2271 249.749 46.3907 244.159 37.4531 232.783C31.276 224.921 27.9527 215.867 26.3855 206.089C25.7721 202.263 25.5107 198.413 25.5426 194.537ZM126.829 166.897C126.887 162.046 126.25 157.206 124.584 152.664C122.061 145.785 116.967 139.652 110.163 136.93C95.9548 131.247 81.4228 141.168 72.5626 151.643C65.0017 160.582 59.9788 171.624 57.7741 183.096C56.2678 190.936 55.9883 199.192 58.4781 206.777C60.9678 214.363 66.5338 221.197 74.0579 223.866C79.872 225.928 86.4138 225.371 92.1576 223.121C97.9015 220.87 102.909 217.025 107.241 212.633C117.414 202.322 124.173 188.698 126.23 174.361C126.584 171.896 126.799 169.395 126.829 166.897Z" fill="#F0DADA"/>
<path d="M220.119 293.981C220.129 285.401 222.155 277.265 225.609 269.456C229.564 260.51 235.119 252.665 242.213 245.956C250.433 238.183 259.863 232.496 271.104 230.319C278.324 228.922 285.459 229.295 292.219 232.519C297.494 235.034 301.525 238.941 304.397 244.019C306.967 248.565 308.361 253.478 308.863 258.671C309.83 268.66 307.742 278.11 303.838 287.223C299.904 296.407 294.206 304.402 286.971 311.259C278.692 319.104 269.157 324.771 257.823 326.901C249.681 328.43 241.784 327.689 234.532 323.266C227.423 318.929 223.458 312.357 221.385 304.489C220.478 301.051 220.053 297.546 220.119 293.981ZM244.186 288.235C244.285 289.533 244.365 290.771 244.497 292.015C245.546 301.965 251.999 308.707 261.883 310.155C262.726 310.279 263.614 310.525 264.369 310.111C265.592 309.443 266.778 309.771 267.996 309.954C268.55 310.037 269.111 310.118 269.67 310.126C275.282 310.198 280.077 308.061 284.061 304.289C290.485 298.207 295.055 291.067 295.637 281.927C295.92 277.488 294.938 273.404 292.137 269.825C291.268 268.715 290.117 267.896 289.345 266.68C283.46 257.411 272.686 254.097 262.821 258.884C250.646 264.794 245.096 275.104 244.186 288.235Z" fill="#F64068"/>
<path d="M311.195 54.4297C312.315 55.3358 313.041 56.5466 313.87 57.6443C321.816 68.1798 328.101 79.6742 333.225 91.7978C336.637 99.8696 338.725 108.333 340.037 116.999C340.919 122.818 341.321 128.675 341.347 134.542C341.376 141.096 340.923 147.64 339.927 154.132C338.325 164.584 335.613 174.739 331.726 184.576C326.467 197.887 319.422 210.162 310.38 221.272C309.136 222.8 307.829 224.279 306.574 225.799C306.159 226.302 305.819 226.329 305.265 225.954C298.991 221.708 291.942 219.395 284.603 217.919C281.844 217.365 279.001 217.399 276.187 217.767C275.848 217.812 275.488 217.935 275.033 217.651C276.278 216.109 277.497 214.584 278.73 213.07C283.109 207.69 286.677 201.758 290.49 195.986C294.954 189.23 298.955 182.23 302.462 174.941C308.929 161.503 313.759 147.501 316.685 132.871C318.065 125.972 319.016 119.008 319.512 111.977C320.086 103.847 319.959 95.7317 319.151 87.6381C318.047 76.5716 315.323 65.8796 311.261 55.5274C311.159 55.2688 311.09 54.9964 311.025 54.7257C311.014 54.6741 311.095 54.6 311.195 54.4297Z" fill="#F64068"/>
<path d="M311.996 101.41C312.036 114.328 310.501 126.256 307.592 138.019C303.024 156.487 295.834 173.859 285.57 189.884C283.389 193.288 280.631 196.358 278.568 199.861C275.671 204.78 271.764 208.888 268.239 213.305C267.715 213.962 267.287 214.156 266.615 213.424C265.554 212.269 264.412 211.186 263.273 210.106C262.788 209.645 262.647 209.335 263.166 208.732C272.124 198.329 279.862 187.091 286.318 174.968C290.866 166.425 294.658 157.568 297.806 148.415C300.958 139.255 303.1 129.867 304.406 120.291C305.052 115.556 305.407 110.785 305.511 105.993C305.744 95.198 304.686 84.562 301.817 74.1407C298.472 61.9924 292.992 50.9478 284.729 41.348C280.458 36.3844 275.822 31.7745 270.38 28.1514C264.566 24.2795 257.909 21.4389 251.396 18.9491C243.022 15.7477 234.566 14.6456 225.667 15.3106C216.911 15.9646 208.424 17.9003 200.145 20.7261C189.134 24.4849 178.304 28.6967 168.014 34.194C156.048 40.5869 144.835 48.0901 134.388 56.7471C128.677 61.4784 123.403 66.6665 118.101 71.8409C111.758 78.0301 107.253 85.4346 103.168 93.1652C102.918 93.6369 102.675 93.9103 102.095 93.9389C100.45 94.0218 98.8104 94.1766 97.1685 94.3002C96.9379 94.3178 96.648 94.421 96.525 94.147C96.363 93.7879 96.688 93.5545 96.8522 93.2959C100.215 87.9951 103.774 82.8333 107.537 77.8039C113.898 69.3018 121.032 61.5053 128.771 54.259C138.886 44.7877 150.041 36.7177 161.981 29.6972C174.812 22.1527 188.473 16.7087 202.959 13.3398C210.251 11.6435 217.636 10.5881 225.132 10.2279C237.901 9.61337 250.326 11.1971 262.369 15.5616C267.066 17.2638 271.659 19.1995 276.015 21.6662C278.278 22.9484 280.154 24.7237 282.056 26.4529C294.365 37.6474 302.177 51.6133 307.089 67.3332C309.06 73.6426 310.213 80.1305 311.027 86.6844C311.666 91.8401 312.081 97.0057 311.996 101.41Z" fill="#F64068"/>
<path d="M240.397 337.57C223.576 340.402 207.803 337.99 193.757 327.82C182.81 319.894 175.885 309.11 172.35 296.129C168.902 283.464 169.343 270.807 172.674 258.192C175.89 246.013 181.643 235.133 189.579 225.387C197.871 215.204 207.949 207.273 219.829 201.676C228.062 197.797 236.715 195.454 245.826 194.828C250.101 194.535 254.351 194.62 258.598 195.119C258.934 195.159 259.405 195.03 259.54 195.465C259.641 195.793 259.312 196.048 259.112 196.289C257.261 198.518 255.392 200.732 253.549 202.968C253.03 203.598 252.405 203.911 251.598 204.022C239.967 205.619 229.414 209.963 219.807 216.642C207.833 224.966 198.593 235.686 192.037 248.708C189.277 254.19 187.186 259.91 185.734 265.894C184.241 272.042 183.48 278.251 183.673 284.552C184.139 299.838 189.196 313.243 200.479 323.881C208.77 331.698 218.801 335.798 230.077 336.989C232.686 337.264 235.3 337.294 237.916 337.199C238.772 337.168 239.589 337.326 240.397 337.57Z" fill="#F0DADA"/>
<path d="M264.132 33.9195C263.889 33.9431 258.28 33.4775 254.078 33.4813C250.743 33.4846 245.394 33.1403 242.046 33.4813C237.371 33.9574 231.686 34.411 227.025 34.8684C218.98 35.6575 211.327 37.8545 203.781 40.4772C192.018 44.5654 180.982 50.1484 170.798 57.3606C166.762 60.2188 163.61 63.3993 159.743 66.5052C151.548 73.0876 134.399 97.3057 133.573 99.1359C133.084 100.218 132.545 100.286 131.55 99.8413C126.403 97.5418 121.078 95.7324 115.63 94.2877C115.049 94.1334 114.456 93.9461 113.863 93.9242C112.569 93.8753 112.811 93.3789 113.382 92.6392C117.095 87.8333 120.955 83.1481 124.931 78.5574C129.576 73.1958 134.629 68.2371 139.842 63.4389C149.708 54.358 160.406 46.4346 172.265 40.1109C178.743 36.6564 185.461 33.8064 192.382 31.3633C196.166 30.0278 199.806 28.2954 203.721 27.313C209.215 25.9347 214.715 24.6008 220.339 23.8535C227.306 22.9276 234.178 23.5158 241.095 24.6354C248.994 25.9143 256.025 29.2552 262.99 32.8839C263.396 33.0964 263.897 33.2397 264.132 33.9195Z" fill="#F64068"/>
<path d="M216.693 321.784C214.336 320.701 212.267 319.332 210.327 317.789C202.747 311.758 198.167 303.846 196.02 294.491C193.914 285.324 194.444 276.21 196.821 267.158C199.555 256.745 204.532 247.51 211.38 239.245C218.267 230.935 226.571 224.462 236.345 219.869C241.222 217.577 246.327 216.068 251.639 215.219C252.229 215.125 252.724 215.211 253.177 215.67C255.043 217.561 256.92 219.443 258.832 221.29C259.483 221.92 259.23 222.16 258.555 222.442C254.912 223.963 251.343 225.633 247.973 227.707C243.44 230.498 239.214 233.676 235.297 237.301C227.339 244.663 221.047 253.222 216.403 263.004C212.823 270.541 210.365 278.391 209.45 286.73C208.523 295.176 209.169 303.421 211.93 311.476C213.044 314.728 214.565 317.782 216.401 320.685C216.567 320.948 216.84 321.173 216.693 321.784Z" fill="#F64068"/>
<path d="M58.9529 109.331C43.2951 120.779 31.6157 135.437 23.7127 153.078C15.8097 170.721 12.6687 189.11 15.4368 208.389C14.3803 206.177 13.7329 203.841 13.1382 201.494C11.2541 194.058 10.7627 186.48 11.2245 178.862C11.8725 168.171 14.4089 157.915 18.8398 148.138C22.0302 141.099 26.0157 134.549 31.0188 128.663C38.2739 120.128 46.8655 113.388 57.5015 109.5C57.909 109.35 58.3269 109.23 58.7398 109.095C58.8107 109.174 58.882 109.252 58.9529 109.331Z" fill="#F64068"/>
<path d="M316.647 228.823C319.29 234.373 319.189 240.128 318.924 245.919C318.095 241.405 315.865 237.63 312.997 234.175C312.756 233.884 312.518 233.584 312.832 233.219C314.078 231.771 315.335 230.333 316.647 228.823Z" fill="#F0DADA"/>
<path d="M310.88 54.2095L310.85 54.125L310.922 54.131L310.88 54.2095Z" fill="#C84140"/>
<path d="M126.763 166.896C126.391 182.121 121.205 195.6 111.896 207.551C107.133 213.665 101.389 218.642 94.3652 222.047C92.6273 222.889 90.747 223.408 89.0755 224.403C88.8416 224.543 88.5467 224.625 88.2732 224.647C83.6622 225.025 79.0479 225.539 74.5171 224.019C67.6393 221.711 62.986 217.002 60.0053 210.532C57.3031 204.667 56.4228 198.437 56.6924 192.042C57.3305 176.896 62.8553 163.595 72.3206 151.91C77.4478 145.581 83.5227 140.315 91.3022 137.424C97.7171 135.041 104.222 134.379 110.731 137.14C117.184 139.877 121.339 144.819 123.951 151.173C126.019 156.201 126.768 161.477 126.763 166.896ZM96.157 185.235C98.7044 184.854 101.166 184.483 103.628 184.118C104.31 184.017 104.214 183.633 104.019 183.163C102.787 180.195 101.557 177.227 100.351 174.249C100.119 173.674 99.7723 173.584 99.2193 173.705C97.023 174.187 94.8249 174.66 92.6185 175.091C91.9502 175.221 91.8695 175.482 92.0995 176.075C93.2044 178.92 94.2801 181.776 95.3581 184.632C95.5179 185.055 95.7364 185.341 96.157 185.235ZM84.3481 176.857C81.8155 177.401 79.3801 177.935 76.9404 178.445C76.4313 178.552 76.4061 178.785 76.5664 179.215C77.5631 181.892 78.5493 184.571 79.5174 187.258C79.686 187.727 79.9386 187.879 80.4213 187.797C82.8001 187.395 85.1811 187.002 87.5638 186.624C88.1579 186.53 88.2831 186.285 88.0695 185.72C87.03 182.974 86.0224 180.216 84.9977 177.464C84.8725 177.127 84.7643 176.74 84.3481 176.857ZM115.496 162.93C115.243 160.728 114.792 158.567 114.096 156.456C113.917 155.915 113.655 155.816 113.108 155.942C109.972 156.665 106.827 157.351 103.682 158.036C103.109 158.16 102.835 158.336 103.115 159.005C103.921 160.935 104.674 162.889 105.435 164.838C105.587 165.227 105.801 165.439 106.247 165.357C109.136 164.834 112.026 164.313 114.919 163.803C115.445 163.71 115.557 163.392 115.496 162.93ZM86.1311 203.525C88.5593 203.13 91.0606 202.722 93.5619 202.315C94.3197 202.192 94.027 201.717 93.8804 201.32C93.0292 199.018 92.1621 196.721 91.3115 194.419C91.1397 193.953 90.9464 193.704 90.35 193.805C87.93 194.211 85.5007 194.56 83.0725 194.911C82.5623 194.984 82.3498 195.148 82.5508 195.693C83.4547 198.147 84.3431 200.607 85.2283 203.068C85.3766 203.479 85.6358 203.643 86.1311 203.525ZM68.0055 198.206C68.3114 200.732 68.9407 203.218 69.9445 205.608C70.1444 206.083 70.4173 206.31 70.9554 206.211C73.0498 205.825 75.1458 205.444 77.2462 205.088C77.8481 204.987 77.9552 204.718 77.7706 204.176C76.9288 201.701 76.1062 199.221 75.282 196.74C75.1541 196.356 74.9871 196.123 74.5044 196.215C72.5699 196.583 70.6298 196.927 68.6892 197.263C68.1593 197.355 67.8869 197.601 68.0055 198.206ZM89.5944 168.652C92.0864 168.157 94.4531 167.696 96.8154 167.212C97.3454 167.104 97.2289 166.706 97.0916 166.353C96.3613 164.48 95.609 162.616 94.8995 160.735C94.6777 160.147 94.3263 160.066 93.7738 160.193C91.6591 160.678 89.5406 161.15 87.4171 161.598C86.778 161.733 86.6385 162.02 86.8763 162.612C87.6104 164.44 88.3166 166.279 89.0393 168.112C89.1579 168.413 89.2798 168.737 89.5944 168.652ZM106.588 191.246C104.077 191.654 101.497 192.077 98.9163 192.49C98.4112 192.57 98.4958 192.863 98.6215 193.19C99.6533 195.898 100.685 198.603 101.715 201.31C101.886 201.761 102.06 202.068 102.524 201.535C104.595 199.157 106.356 196.561 107.873 193.806C108.33 192.977 107.427 191.246 106.588 191.246ZM115.489 170.96C115.617 170.332 115.311 170.124 114.61 170.296C112.698 170.767 110.788 171.246 108.864 171.66C108.136 171.817 108.184 172.187 108.382 172.7C109.63 175.924 110.874 179.148 112.127 182.368C112.223 182.615 112.269 182.973 112.645 182.922C112.922 182.884 112.962 182.582 113.031 182.362C114.199 178.675 115.07 174.923 115.489 170.96ZM79.1012 163.332C78.5702 163.549 77.6746 163.379 77.1578 164.039C75.6626 165.951 74.5588 168.103 73.5753 170.306C73.2118 171.12 73.7126 171.771 74.4764 171.63C76.8476 171.192 79.2077 170.695 81.5766 170.245C82.095 170.146 82.2674 169.95 82.0725 169.431C81.3669 167.549 80.6777 165.661 79.9891 163.773C79.8634 163.429 79.6745 163.217 79.1012 163.332ZM109.971 149.641C106.512 146.609 102.839 145.971 98.8049 146.729C98.2086 146.841 98.2404 147.136 98.4337 147.581C98.9133 148.684 99.3693 149.798 99.8303 150.909C99.9733 151.252 100.101 151.601 100.587 151.505C103.608 150.905 106.629 150.305 109.971 149.641ZM69.7677 180.382C68.7414 183.29 68.3778 186.072 68.0044 188.854C67.9358 189.366 68.1055 189.625 68.6585 189.546C69.771 189.387 70.8841 189.228 71.9982 189.085C72.398 189.033 72.599 188.865 72.4617 188.452C71.5902 185.834 70.7155 183.218 69.7677 180.382ZM85.2113 154.369C85.3931 154.412 85.4348 154.435 85.471 154.428C86.8894 154.147 88.3051 153.851 89.7262 153.585C92.1226 153.135 92.1243 153.143 91.1232 150.904C91.1067 150.868 91.0946 150.829 91.0837 150.79C90.9244 150.238 90.6444 150.255 90.1935 150.524C88.4264 151.578 86.7966 152.802 85.2113 154.369ZM94.7463 208.948C92.4839 209.374 90.5538 209.772 88.6104 210.086C87.9262 210.197 87.7269 210.491 88.092 211.011C88.4023 211.453 88.047 212.701 89.2485 212.172C91.0881 211.362 92.848 210.396 94.7463 208.948ZM75.5802 212.45C77.2742 213.291 78.6806 213.835 80.2258 213.926C80.5108 213.942 80.8891 214.075 80.9397 213.554C81.0445 212.483 80.1709 211.64 79.0924 211.818C78.0359 211.992 76.9848 212.196 75.5802 212.45Z" fill="#222222"/>
<path d="M244.186 288.234C245.096 275.103 250.646 264.794 262.823 258.885C272.687 254.097 283.461 257.411 289.346 266.68C290.118 267.895 291.269 268.715 292.138 269.825C294.939 273.404 295.922 277.488 295.638 281.927C295.056 291.068 290.486 298.206 284.062 304.289C280.078 308.061 275.53 310.609 269.918 310.537C269.359 310.529 268.524 310.295 267.969 310.212C266.751 310.03 268.088 309.709 265.464 310.212C264.708 310.625 262.728 310.279 261.884 310.155C251.999 308.707 245.547 301.964 244.497 292.015C244.365 290.771 244.285 289.533 244.186 288.234ZM278.86 265.488C278.711 265.288 278.661 265.169 278.571 265.11C278.335 264.958 278.09 264.816 277.834 264.701C273.607 262.793 269.374 263.195 265.355 265.118C257.551 268.854 253.111 275.28 251.343 283.632C250.194 289.061 251.21 294.089 254.401 298.653C255.088 299.635 255.96 300.425 257.069 301.324C251.772 285.72 266.376 267.162 278.86 265.488Z" fill="#222222"/>
<path d="M96.1575 185.235C95.7363 185.341 95.5177 185.055 95.3579 184.631C94.28 181.776 93.2043 178.92 92.1 176.074C91.8693 175.481 91.9506 175.221 92.6183 175.09C94.8247 174.659 97.0234 174.186 99.2192 173.705C99.7732 173.584 100.119 173.673 100.351 174.248C101.557 177.226 102.788 180.195 104.019 183.163C104.213 183.632 104.31 184.017 103.629 184.118C101.166 184.483 98.7049 184.853 96.1575 185.235Z" fill="#F0DADA"/>
<path d="M84.3482 176.857C84.7639 176.741 84.8726 177.128 84.9984 177.465C86.0225 180.216 87.0306 182.974 88.0695 185.72C88.2831 186.285 88.1585 186.531 87.5638 186.625C85.1811 187.003 82.8008 187.395 80.4219 187.797C79.9387 187.878 79.686 187.726 79.5174 187.258C78.5493 184.571 77.5632 181.891 76.5665 179.215C76.4062 178.785 76.4314 178.552 76.9405 178.445C79.3803 177.935 81.8156 177.402 84.3482 176.857Z" fill="#F0DADA"/>
<path d="M115.496 162.93C115.557 163.392 115.445 163.71 114.919 163.803C112.026 164.313 109.136 164.834 106.247 165.358C105.801 165.438 105.587 165.226 105.436 164.838C104.674 162.889 103.921 160.935 103.115 159.004C102.835 158.335 103.109 158.16 103.682 158.035C106.827 157.351 109.972 156.664 113.108 155.942C113.655 155.816 113.917 155.914 114.095 156.456C114.792 158.567 115.243 160.728 115.496 162.93Z" fill="#F0DADA"/>
<path d="M86.1314 203.525C85.635 203.643 85.3769 203.48 85.2287 203.067C84.3435 200.607 83.455 198.147 82.5506 195.693C82.3496 195.147 82.5621 194.984 83.0722 194.91C85.501 194.56 87.9304 194.211 90.3498 193.804C90.9467 193.704 91.14 193.953 91.3119 194.418C92.1619 196.721 93.029 199.017 93.8801 201.319C94.0268 201.716 94.3194 202.191 93.5616 202.315C91.0604 202.722 88.5597 203.13 86.1314 203.525Z" fill="#F0DADA"/>
<path d="M68.0058 198.205C67.8878 197.601 68.1601 197.355 68.6895 197.263C70.6301 196.926 72.5695 196.582 74.5046 196.214C74.9873 196.122 75.1543 196.355 75.2817 196.739C76.1059 199.22 76.929 201.7 77.7703 204.175C77.9548 204.717 77.8478 204.986 77.2465 205.088C75.1461 205.443 73.05 205.824 70.9551 206.21C70.4175 206.309 70.144 206.082 69.9447 205.606C68.9404 203.217 68.3117 200.73 68.0058 198.205Z" fill="#F0DADA"/>
<path d="M89.5936 168.652C89.2795 168.737 89.1571 168.413 89.0385 168.112C88.3158 166.28 87.6096 164.44 86.876 162.613C86.6382 162.021 86.7772 161.733 87.4163 161.598C89.5398 161.151 91.6583 160.679 93.7736 160.193C94.3255 160.066 94.6769 160.147 94.8993 160.735C95.6088 162.616 96.3605 164.481 97.0909 166.354C97.2287 166.707 97.3445 167.104 96.8146 167.212C94.4523 167.696 92.0861 168.157 89.5936 168.652Z" fill="#F0DADA"/>
<path d="M106.588 191.247C107.426 191.247 108.33 192.977 107.873 193.807C106.356 196.561 104.594 199.157 102.524 201.535C102.06 202.069 101.886 201.761 101.715 201.31C100.686 198.603 99.6532 195.897 98.6213 193.191C98.4961 192.861 98.4109 192.57 98.9152 192.49C101.497 192.077 104.077 191.654 106.588 191.247Z" fill="#F0DADA"/>
<path d="M115.489 170.959C115.07 174.923 114.199 178.675 113.032 182.363C112.963 182.581 112.922 182.884 112.646 182.921C112.269 182.973 112.223 182.615 112.127 182.369C110.875 179.147 109.63 175.923 108.383 172.7C108.185 172.187 108.136 171.816 108.865 171.66C110.789 171.246 112.699 170.767 114.61 170.296C115.311 170.123 115.618 170.332 115.489 170.959Z" fill="#F0DADA"/>
<path d="M79.101 163.332C79.6743 163.216 79.8637 163.428 79.9889 163.773C80.6776 165.66 81.3667 167.549 82.0723 169.431C82.2673 169.95 82.0948 170.146 81.5765 170.245C79.2075 170.695 76.8474 171.192 74.4763 171.629C73.7124 171.771 73.2116 171.12 73.5751 170.305C74.5586 168.103 75.6624 165.951 77.1576 164.039C77.6744 163.379 78.5695 163.549 79.101 163.332Z" fill="#F0DADA"/>
<path d="M109.971 149.641C106.629 150.305 103.608 150.905 100.587 151.505C100.102 151.601 99.9732 151.253 99.8312 150.909C99.3692 149.798 98.9132 148.685 98.4336 147.581C98.2409 147.137 98.2085 146.841 98.8054 146.729C102.838 145.971 106.512 146.609 109.971 149.641Z" fill="#F0DADA"/>
<path d="M69.7674 180.382C70.7146 183.218 71.5905 185.835 72.4614 188.452C72.5987 188.866 72.3977 189.033 71.9979 189.084C70.8832 189.227 69.7708 189.387 68.6582 189.546C68.1053 189.624 67.9356 189.366 68.0042 188.853C68.3776 186.073 68.7405 183.29 69.7674 180.382Z" fill="#F0DADA"/>
<path d="M85.2109 154.37C86.7962 152.803 88.426 151.579 90.1931 150.524C90.644 150.255 90.9235 150.238 91.0833 150.791C91.0942 150.829 91.1063 150.868 91.1228 150.904C92.1238 153.143 92.1222 153.135 89.7258 153.585C88.3047 153.852 86.889 154.147 85.4701 154.428C85.4344 154.435 85.3927 154.412 85.2109 154.37Z" fill="#F0DADA"/>
<path d="M94.7461 208.948C92.8477 210.395 91.0883 211.362 89.2482 212.172C88.0467 212.701 88.4026 211.453 88.0923 211.011C87.7266 210.491 87.9265 210.198 88.6101 210.087C90.5535 209.772 92.4837 209.375 94.7461 208.948Z" fill="#CAB99A"/>
<path d="M75.5801 212.451C76.9843 212.196 78.0358 211.993 79.0924 211.819C80.1708 211.64 81.0445 212.484 80.9396 213.554C80.8891 214.075 80.5108 213.943 80.2258 213.926C78.6805 213.836 77.2742 213.291 75.5801 212.451Z" fill="#CAB99A"/>
<path d="M278.86 265.487C266.377 267.161 251.773 285.719 257.069 301.323C255.96 300.423 255.088 299.634 254.401 298.652C251.21 294.088 250.195 289.06 251.344 283.631C253.112 275.279 257.552 268.853 265.356 265.117C269.374 263.194 273.607 262.792 277.835 264.7C278.091 264.815 278.335 264.957 278.572 265.109C278.661 265.168 278.712 265.287 278.86 265.487Z" fill="#F64068"/>
</svg>
