<svg width="328" height="351" viewBox="0 0 328 351" fill="none" xmlns="http://www.w3.org/2000/svg">
<g clip-path="url(#clip0_37_18)">
<path d="M323.729 152.352C319.466 135.784 312.301 120.501 303.137 106.125C289.424 84.6198 272.239 66.2605 252.24 50.5122C214.953 21.1508 168.328 0.765135 120.31 0.924759C105.098 0.975548 89.8316 3.2678 75.6656 8.97848C55.8583 16.9627 40.4997 29.9021 30.9912 49.3025C30.7005 49.8897 30.3165 50.3784 29.8573 50.8319C18.8604 61.5557 11.3347 74.4194 6.57817 88.9291C-0.796126 111.4 -1.22058 134.173 4.01901 157.126C6.61082 168.48 10.6698 179.487 16.1856 189.748C18.5743 194.191 22.3306 198.393 23.0893 203.215C24.0564 209.359 21.7782 216.305 22.8789 222.83C24.0315 229.659 26.6182 236.487 31.5929 241.306C36.5677 246.124 44.2633 248.512 50.6855 245.919C51.6635 245.524 52.6845 245.012 53.7215 245.216C56.4061 245.748 62.8102 253.555 64.6625 255.617C66.6168 257.791 68.7743 259.705 71.1412 261.409C72.0761 262.089 72.9421 262.861 73.8657 263.57C79.2094 267.671 86.2697 271.299 90.1219 276.371C94.907 282.671 96.0383 288.663 104.221 292.311C110.793 295.242 115.892 293.771 122.576 293.344C128.433 292.97 133.097 295.126 139.153 296.017C139.548 296.074 139.973 296.08 140.345 296.389C140.304 296.586 140.281 296.819 140.205 297.034C134.517 313.227 131.065 339.159 149.906 347.896C160.378 352.751 174.191 349.55 181.094 340.238C183.908 336.44 186.025 332.241 188.38 328.176C189.765 325.792 190.596 323.228 191.237 320.552C192.224 316.377 192.695 312.091 193.871 307.95C194.29 306.491 194.261 306.473 195.691 306.52C201.861 306.729 207.985 306.234 214.086 305.362C217.016 304.943 219.924 304.392 222.82 303.775C223.547 303.618 223.919 303.757 224.001 304.542C224.088 305.403 224.28 306.258 224.332 307.124C224.806 314.967 227.717 322.042 233.511 327.531C237.009 330.845 241.983 332.994 246.675 331.899C249.242 331.3 251.51 329.797 253.514 328.085C260.971 321.713 264.848 312.306 265.081 302.553C265.197 297.68 265.825 292.825 265.685 287.945C265.668 287.183 265.848 286.648 266.558 286.217C270.332 283.932 273.944 281.402 277.345 278.587C277.991 278.058 278.374 278.128 278.935 278.7C283.355 283.188 290.735 285.953 296.896 283.999C301.573 282.517 305.106 278.503 307.154 274.044C311.001 265.67 311.406 255.482 313.011 246.516C314.104 240.409 315.192 234.298 316.28 228.185C316.763 225.498 317.547 222.951 318.809 220.468C324.032 210.186 326.672 199.184 327.393 187.704C328.143 175.718 326.712 163.954 323.729 152.352ZM163.764 156.882C152.226 149.7 142.793 140.5 136.402 128.072C139.403 127.235 142.072 127.433 144.735 128.212C144.794 128.224 144.846 128.247 144.904 128.265C146.829 128.765 148.068 129.573 148.574 131.893C149.475 136.011 151.848 139.413 155.39 141.867C156.546 142.67 157.815 143.228 159.205 143.49C162.583 144.135 165.212 142.885 167.323 140.291C168.835 138.43 168.788 138.505 170.76 139.953C173.923 142.28 176.448 145.223 178.96 148.188C183.397 153.416 187.503 158.883 190.939 164.826C191.23 165.326 191.504 165.838 191.77 166.35C191.823 166.443 191.8 166.571 191.805 166.682C186.973 167.175 171.945 161.977 163.764 156.882Z" fill="#222222"/>
<path d="M250.443 263.357C250.443 269.98 250.316 274.86 250.487 279.731C250.601 282.96 250.722 286.199 251.312 289.416C251.823 292.201 251.7 295.078 251.842 297.914C252.098 303.021 251.288 307.966 249.997 312.866C249.443 314.97 248.301 316.651 246.42 317.809C245.275 318.514 244.194 318.514 242.982 317.894C240.938 316.847 239.443 315.319 238.382 313.303C237.566 311.752 236.943 310.124 236.529 308.435C235.468 304.105 234.209 299.802 233.824 295.346C233.529 291.926 232.63 288.625 232.155 285.241C230.55 273.814 218.63 262.546 208.043 259.221C203.136 257.68 197.535 257.599 193.088 260.183C182.596 266.28 182.605 281.421 181.737 291.893C180.889 302.115 179.947 312.33 178.91 322.534C178.214 329.385 176.022 335.089 168.8 336.883C163.216 338.27 155.347 337.335 151.674 332.389C149.399 329.324 149.571 325.142 149.964 321.344C151.449 307.016 154.643 293.002 158.895 279.291C161.074 272.265 158.197 262.587 152.816 257.738C146.721 252.247 136.413 252.749 131.489 259.579C130.073 261.543 129.501 263.968 128.717 266.259C127.314 270.358 125.143 274.192 122.35 277.503C121.065 279.026 119.596 280.478 117.75 281.23C110.344 284.251 104.432 274.27 103.981 268.274C103.698 264.502 104.359 260.73 105.018 257.006C106.1 250.885 107.183 244.766 108.265 238.645C108.978 234.613 109.694 230.507 109.187 226.442C108.139 218.025 100.097 211.615 92.4257 209.23C82.5471 206.16 72.027 209.211 64.4548 215.942C60.5787 219.387 57.1556 223.224 54.4249 227.675C51.9269 231.746 47.6803 239.252 41.8193 237.261C39.228 236.382 37.4592 233.971 36.2906 231.496C33.9009 226.435 33.3422 220.648 33.9356 215.083C34.6135 208.725 36.8145 202.865 38.9632 196.903C40.1417 193.632 41.2295 190.322 42.8159 187.208C44.0318 184.821 45.6757 182.705 47.0097 180.393C49.9088 175.369 52.9147 170.403 54.5524 164.765C55.5112 161.463 56.3767 158.151 55.9849 154.674C55.4495 149.926 54.3347 145.327 52.413 140.926C47.8845 130.556 41.8623 121.531 38.8958 110.423C33.5749 90.4953 34.571 68.3491 45.2435 50.3138C51.6424 39.5003 60.5419 31.3092 71.528 25.3291C104.019 7.64138 142.78 12.653 176.451 23.738C177.263 24.0054 178.069 24.2931 178.876 24.5766C191.166 28.905 202.94 34.3654 214.285 40.7654C248.138 59.8601 278.277 87.5085 297.649 121.418C297.666 121.449 297.683 121.479 297.7 121.509C302.431 129.8 306.386 138.44 309.487 147.457C312.056 154.925 313.895 162.577 314.892 170.436C315.634 176.276 315.803 182.13 315.455 187.978C315.065 194.572 313.785 201.101 311.648 207.352C309.595 213.356 306.562 218.806 305.215 225.058C302.311 238.538 306.338 260.183 290.975 267.28C282.273 271.3 283.751 257.791 283.468 252.991C283.097 246.7 282.954 240.361 281.479 234.202C280.692 230.92 279.114 227.635 276.285 225.794C274.262 224.478 271.802 224.027 269.399 223.799C266.833 223.555 264.162 223.547 261.778 224.527C259.183 225.594 257.164 227.741 255.647 230.102C249.429 239.78 250.443 252.365 250.443 263.357ZM211.103 220.72L210.996 220.618C211.252 219.614 212.063 218.995 212.664 218.235C213.893 216.679 215.555 215.541 216.836 214.045C222.555 207.363 229.365 201.968 236.803 197.384C242.527 193.855 248.248 190.303 253.915 186.7C261.501 181.876 269.479 177.71 276.892 172.603C280.066 170.415 283.059 168.058 285.715 165.3C289.173 161.709 287.891 156.468 283.086 154.627C281.352 153.963 279.506 153.773 277.606 153.989C274.314 154.362 271.075 154.95 267.866 155.777C265.558 156.372 263.341 157.231 261.064 157.904C256.666 159.205 252.357 160.736 248.204 162.692C247.05 163.236 245.892 163.777 244.706 164.245C239.084 166.464 233.7 169.198 228.425 172.109C223.299 174.938 217.931 177.305 212.958 180.434C210.064 182.256 207.043 183.871 204.36 186.018C203.681 186.56 202.972 187.076 202.226 187.52C197.989 190.045 193.804 192.646 189.828 195.574C189.269 195.985 188.647 196.311 188.053 196.674C184.833 198.64 181.603 200.604 178.611 202.898C173.87 206.534 169.263 210.345 164.533 213.995C159.546 217.843 154.167 221.023 148.153 223.021C145.307 223.967 144.481 223.37 144.348 220.378C144.344 220.263 144.347 220.147 144.348 220.03C144.382 216.734 145.037 213.576 146.526 210.623C149.342 205.036 153.429 200.464 158.137 196.438C162.107 193.042 166.367 190.008 170.602 186.956C173.902 184.576 177.288 182.321 180.652 180.033C182.584 178.719 183.135 178.724 185.441 179.035C187.361 179.293 189.284 179.537 191.212 179.732C205.357 181.164 221.189 179.152 228.898 165.646C229.822 164.026 230.317 162.213 231.229 160.601C232.635 158.114 233.311 155.473 233.299 152.624C233.291 150.915 233.35 149.241 233.454 147.533C233.513 148.65 233.573 149.767 233.632 150.884C233.644 151.098 233.661 151.326 233.791 151.494C234.096 151.887 234.718 151.681 235.154 151.443C251.351 142.606 267.81 133.573 280.688 120.361C282.567 118.433 284.393 116.375 285.468 113.907C286.544 111.439 286.772 108.47 285.48 106.108C284.349 104.039 282.187 102.679 279.91 102.063C277.633 101.446 275.232 101.494 272.881 101.672C264.232 102.326 255.805 104.672 247.538 107.293C239.422 109.868 231.394 112.719 223.473 115.842C223.114 115.983 222.739 116.128 222.355 116.09C221.883 116.044 221.486 115.732 221.124 115.427C219.097 113.724 217.219 111.832 215.036 110.333C210.799 107.427 205.302 107.035 200.536 108.889C196.486 110.464 195.803 113.91 194.052 117.493C193.645 118.326 193.093 119.248 192.178 119.399C191.191 119.561 190.325 118.73 189.79 117.883C189.153 116.875 186.932 106.186 188.022 106.194C188.911 106.201 189.719 105.922 190.532 105.578C193.896 104.156 197.14 102.472 200.542 101.12C209.789 97.4473 218.534 92.7943 226.809 87.266C230.157 85.0292 232.519 82.0083 233.764 78.1846C234.316 76.4888 234.939 74.7574 234.681 72.915C234.071 68.5585 231.983 65.067 228.412 62.4928C224.656 59.7844 220.358 58.4224 215.862 57.6326C208.609 56.3582 201.323 56.2836 194.034 57.2823C182.032 58.9267 170.336 61.7174 159.237 66.7072C157.386 67.5395 155.536 68.3777 153.661 69.1535C146.582 72.0822 139.562 75.1305 132.788 78.7329C123.558 83.6413 114.65 89.0965 105.73 94.5299C98.2924 99.0605 91.2871 104.252 83.9501 108.938C77.1034 113.311 70.1908 117.582 63.6261 122.381C62.8787 122.928 62.0687 123.394 61.2639 123.855C60.8912 124.068 60.5772 124.481 59.9832 124.332C60.5564 120.788 61.9977 117.569 63.6131 114.435C68.4293 105.088 74.5701 96.6646 81.7091 88.9711C84.2341 86.2502 86.459 83.2547 89.2648 80.7898C91.27 79.0283 93.2419 77.2274 95.1952 75.4084C96.5577 74.1391 98.0052 72.9869 99.516 71.9002C106.537 66.8528 113.547 61.7901 120.553 56.721C127.699 51.5509 134.809 46.3299 141.99 41.208C144.592 39.3521 147.103 37.3926 149.566 35.3636C151.468 33.7974 152.735 31.8757 153.149 29.3896C153.924 24.7486 150.694 19.9133 146.144 19.0566C144.313 18.7114 142.458 18.6109 140.599 18.7985C138.291 19.0317 135.982 19.2582 133.678 19.5349C127.857 20.2336 122.149 21.5473 116.406 22.6808C111.615 23.6261 106.884 24.8875 102.359 26.6164C93.4814 30.0089 84.6383 33.5238 76.0715 37.6761C70.0934 40.5736 64.3755 43.8319 59.7873 48.7792C57.551 51.1912 56.7001 53.9841 57.5656 57.1076C58.2626 59.6232 59.8231 61.675 62.0511 63.1282C64.5252 64.7421 66.7278 64.4902 68.4568 62.1275C71.2388 58.3255 74.8997 55.6601 78.952 53.4228C83.0162 51.1787 87.0648 48.9083 91.116 46.6419C92.5863 45.8194 94.0898 45.0695 95.6358 44.3984C102.776 41.2982 110.09 38.6706 117.543 36.4395C121.711 35.192 125.917 34.0581 130.291 33.7632C131.105 33.7083 131.918 33.6108 133.043 33.7565C129.308 36.4794 125.659 38.6379 121.999 40.7431C115.052 44.7363 108.258 48.9653 101.606 53.4218C97.1729 56.3919 92.6692 59.2625 88.4258 62.511C86.1112 64.2829 84.1983 66.4907 81.9957 68.3699C77.1676 72.49 72.7609 77.0097 68.6376 81.8217C61.695 89.9236 55.5951 98.5702 51.4237 108.46C50.681 110.222 49.9321 111.989 49.3527 113.807C48.6515 116.006 47.6746 118.124 47.4849 120.484C47.3719 121.896 47.7275 123.262 47.6684 124.648C47.5419 127.588 48.4126 130.249 49.7678 132.802C51.1428 135.391 53.3034 137.085 55.973 138.109C59.0706 139.298 62.1247 138.945 65.0756 137.502C68.0022 136.07 70.7449 134.322 73.4403 132.511C77.6781 129.665 81.8024 126.649 86.0672 123.845C91.9297 119.99 97.8829 116.272 103.788 112.482C109.01 109.13 114.114 105.593 119.456 102.428C119.486 103.015 119.341 103.566 119.182 104.126C118.644 106.019 118.412 107.948 118.337 109.924C118.155 114.718 119.347 119.295 120.318 123.918C120.805 126.236 121.748 128.417 122.199 130.738C121.836 130.917 121.464 131.078 121.113 131.278C112.219 136.347 103.943 142.303 96.041 148.793C91.4156 152.592 86.9679 156.584 83.2416 161.292C78.7385 166.981 75.7144 173.269 75.9756 180.745C76.0383 182.538 76.1928 184.339 76.4695 186.11C77.5237 192.854 82.9001 198.058 89.6639 199.132C93.5783 199.753 97.4092 199.474 101.215 198.507C108.265 196.715 114.627 193.365 120.768 189.606C127.097 185.731 133.228 181.542 139.591 177.711C144.999 174.454 150.346 171.064 155.149 166.914C155.821 166.928 156.357 167.303 156.91 167.605C160.574 169.598 164.181 171.697 167.929 173.535C167.684 173.779 167.451 174.036 167.193 174.265C162.591 178.348 157.886 182.312 153.272 186.382C146.468 192.384 140.481 199.006 135.989 206.931C133.662 211.036 132.239 215.426 131.775 220.095C131.376 224.11 132.461 227.697 135.512 230.514C138.739 233.494 142.514 234.999 146.948 234.65C149.214 234.471 151.435 234.011 153.599 233.352C159.36 231.601 164.708 228.958 169.676 225.57C179.121 219.126 188.557 212.672 197.959 206.167C201.155 203.955 204.581 202.042 207.5 199.469C213.204 194.439 219.538 190.344 226.278 186.936C234.823 182.615 243.219 178.019 251.645 173.485C256.619 170.809 261.695 168.428 266.937 166.369C268.14 165.896 269.34 165.367 271.053 165.279C269.464 166.46 268.214 167.489 266.868 168.372C259.442 173.243 251.752 177.692 244.019 182.037C237.201 185.868 230.859 190.333 224.849 195.261C220.231 199.049 215.666 202.915 211.171 206.853C208.036 209.6 204.818 212.258 202.195 215.571C198.728 219.953 197.601 225.055 197.581 230.393C197.565 234.554 200.732 237.167 204.902 237.083C207.098 237.039 209.103 236.325 211.081 235.446C216.508 233.034 221.575 229.975 226.607 226.857C235.396 221.411 244.414 216.385 253.829 212.098C261.551 208.583 269.612 205.96 277.624 203.213C282.168 201.655 286.901 201.176 291.664 200.896C292.394 200.853 293.028 201.052 293.655 201.39C294.421 201.803 295.209 202.174 296.062 202.382C299.042 203.108 301.619 202.037 303.228 199.404C304.386 197.509 303.888 194.888 302.06 192.681C299.684 189.812 296.465 188.873 292.958 188.625C289.69 188.393 286.483 188.989 283.271 189.485C278.436 190.231 273.793 191.707 269.137 193.132C263.081 194.986 257.245 197.39 251.521 200.097C246.795 202.332 242.27 204.929 237.675 207.406C230.935 211.037 224.104 214.5 217.273 217.956C215.265 218.972 213.254 220.012 211.103 220.72Z" fill="#F64068"/>
<path d="M24.6644 78.3711C24.4789 84.9882 24.9759 91.3525 25.3615 97.7208C25.6817 103.018 26.9406 108.137 28.3181 113.239C29.9201 119.174 31.7412 125.042 33.5245 130.924C35.0757 136.04 37.2539 140.918 39.1119 145.917C40.081 148.526 41.1217 151.12 41.9639 153.761C43.1398 157.448 44.1753 161.213 43.6197 165.196C43.4404 166.482 43.0937 167.668 42.5718 168.846C39.5343 175.713 35.7966 182.176 31.5096 188.334C30.7508 189.424 30.1932 190.652 29.5174 191.801C29.265 192.23 29.196 192.8 28.6519 193.042C28.144 192.677 28.0009 192.088 27.747 191.58C20.9946 178.038 16.3002 163.818 14.0023 148.858C10.7487 127.679 12.548 106.995 20.4484 86.9607C21.4491 84.4228 22.5815 81.944 23.7533 79.4828C23.9171 79.1381 24.0161 78.723 24.6644 78.3711Z" fill="#F0DADA"/>
<path d="M89.7361 260.764C89.1241 260.761 88.7095 260.314 88.2446 259.997C79.6534 254.119 71.58 247.601 64.0585 240.402C63.8072 240.161 63.5714 239.903 63.3102 239.674C62.8111 239.234 62.8665 238.836 63.2744 238.338C65.1562 236.038 66.5643 233.424 68.1378 230.92C69.4681 228.803 70.9218 226.78 72.4429 224.801C72.9415 224.152 73.4986 223.546 74.1894 223.115C77.2156 221.23 80.3054 219.564 84.0674 219.792C86.1519 219.919 88.2337 219.995 90.3104 220.27C92.2601 220.528 93.6604 221.509 94.6052 223.168C95.8288 225.317 96.5326 227.609 96.5963 230.118C96.7337 235.522 96.0133 240.74 93.8387 245.748C91.8657 250.291 90.4845 255.018 90.0906 259.99C90.0678 260.279 90.0352 260.571 89.7361 260.764Z" fill="#F0DADA"/>
<path d="M197.504 293.472C196.171 293.472 194.837 293.458 193.503 293.477C192.84 293.487 192.548 293.222 192.623 292.543C193.114 288.112 192.916 283.609 193.979 279.241C194.771 275.987 196.73 273.313 199.433 271.649C202.646 269.673 207.279 269.401 210.868 272.203C214.959 275.399 217.596 279.492 219.283 284.288C219.858 285.924 220.336 287.603 220.751 289.287C221.174 291.009 221.118 291.033 219.288 291.316C217.055 291.66 214.825 292.035 212.583 292.307C207.575 292.917 202.549 293.309 197.504 293.472Z" fill="#F0DADA"/>
<path d="M150.086 274.294C150.044 274.696 150.036 275.4 149.889 276.075C149.162 279.416 148.411 282.752 147.64 286.084C147.361 287.285 147.282 287.332 146.105 287.002C141.582 285.734 137.091 284.364 132.685 282.727C131.356 282.234 131.3 282.176 132.017 281.06C134.324 277.47 135.942 273.566 137.351 269.567C138.108 267.418 139.402 265.684 141.189 264.302C142.632 263.185 144.22 262.956 145.947 263.544C147.055 263.921 147.838 264.59 148.264 265.714C149.28 268.39 149.995 271.123 150.086 274.294Z" fill="#F0DADA"/>
<path d="M265.155 274.728C265.155 273.072 265.07 271.746 265.171 270.434C265.432 267.072 265.445 263.705 265.38 260.342C265.246 253.422 265.842 246.547 266.458 239.669C266.619 237.874 267.352 236.324 268.292 234.841C268.511 234.496 268.733 234.126 269.238 234.24C269.697 234.344 269.869 234.716 269.987 235.116C270.351 236.353 270.408 237.633 270.46 238.905C270.528 240.586 270.511 242.27 270.516 243.953C270.534 249.89 271.21 255.762 272.305 261.586C272.669 263.52 273.285 265.401 273.63 267.347C273.832 268.483 273.708 269.277 272.615 269.977C270.228 271.507 267.895 273.12 265.155 274.728Z" fill="#F0DADA"/>
<path d="M119.455 102.429C114.113 105.594 109.009 109.13 103.787 112.482C97.8822 116.273 91.929 119.99 86.0659 123.845C81.8017 126.65 77.6769 129.666 73.4396 132.512C70.7442 134.322 68.0015 136.071 65.0749 137.502C62.1235 138.945 59.0699 139.298 55.9723 138.11C53.3027 137.086 51.1421 135.392 49.7671 132.802C45.4625 124.694 48.1087 116.318 51.423 108.46C55.5944 98.5713 61.6943 89.9248 68.6369 81.8228C72.7602 77.0108 77.1669 72.4905 81.995 68.3708C84.1976 66.4911 86.1105 64.2838 88.4251 62.5119C92.6685 59.263 97.1722 56.3923 101.605 53.4227C108.257 48.9662 115.052 44.7372 121.997 40.7435C125.658 38.6389 129.306 36.4803 133.042 33.7574C131.917 33.6112 131.104 33.7092 130.29 33.7641C125.915 34.0585 121.71 35.1925 117.542 36.4404C110.089 38.671 102.775 41.2986 95.6345 44.3993C94.0891 45.0705 92.5856 45.8204 91.1153 46.6428C87.0641 48.9087 83.015 51.1797 78.9513 53.4232C74.899 55.6611 71.2381 58.3265 68.456 62.1279C66.7271 64.4911 64.5245 64.743 62.0504 63.1292C59.8224 61.6754 58.2619 59.6242 57.5649 57.108C56.6988 53.985 57.5503 51.1921 59.7866 48.7801C64.3748 43.8323 70.0927 40.5746 76.0708 37.677C84.6376 33.5247 93.4807 30.0094 102.358 26.6168C106.883 24.8879 111.615 23.627 116.406 22.6817C122.149 21.5483 127.857 20.234 133.677 19.5354C135.98 19.2591 138.29 19.0326 140.598 18.7994C142.458 18.6113 144.312 18.7124 146.143 19.057C150.693 19.9142 153.923 24.749 153.149 29.3906C152.734 31.8766 151.467 33.7978 149.566 35.3645C147.103 37.3935 144.592 39.353 141.99 41.2089C134.809 46.3309 127.698 51.5513 120.552 56.7219C113.547 61.791 106.537 66.8539 99.5153 71.9012C98.004 72.9875 96.557 74.1396 95.1945 75.4088C93.2412 77.2284 91.2693 79.0288 89.2641 80.7904C86.4583 83.2552 84.2334 86.2507 81.7084 88.9716C74.5694 96.6656 68.4286 105.088 63.6124 114.435C61.997 117.57 60.5557 120.788 59.982 124.333C60.5759 124.482 60.8905 124.069 61.2631 123.855C62.068 123.394 62.878 122.928 63.6254 122.382C70.1901 117.582 77.1027 113.311 83.9494 108.938C91.2864 104.252 98.2916 99.0615 105.729 94.5309C114.649 89.0975 123.557 83.6424 132.787 78.734C139.561 75.1311 146.58 72.0831 153.66 69.1544C155.535 68.3786 157.385 67.5401 159.237 66.7077C170.335 61.7185 182.031 58.9276 194.034 57.2832C201.322 56.2845 208.609 56.3592 215.861 57.633C220.357 58.4229 224.655 59.7854 228.412 62.4938C231.982 65.068 234.07 68.5596 234.681 72.916C234.939 74.7585 234.316 76.4899 233.763 78.1856C232.518 82.0088 230.157 85.0302 226.809 87.267C218.533 92.7953 209.788 97.4482 200.541 101.121C197.139 102.473 193.896 104.156 190.531 105.578C189.719 105.922 188.91 106.201 188.021 106.195C187.907 105.811 187.796 105.427 187.678 105.045C186.67 101.776 185.135 98.8843 182.004 97.1367C182.18 96.2308 182.732 95.6213 183.454 95.0673C186.043 93.0788 188.857 91.4665 191.757 89.9962C193.776 88.9737 195.795 87.9615 197.695 86.7208C202.83 83.3671 208.44 80.85 213.296 77.0532C214.453 76.1473 215.588 75.1616 216.341 73.8986C216.456 73.7058 216.564 73.4929 216.544 73.2695C216.511 72.914 216.173 72.6724 215.851 72.5169C214.869 72.0427 213.762 71.9053 212.675 71.8038C207.718 71.3399 202.837 71.7167 197.888 72.023C193.425 72.2997 189.023 72.9999 184.649 73.9348C179.369 75.0636 174.143 76.4034 169.081 78.2629C164.08 80.0996 158.981 81.7066 154.208 84.1264C152.241 82.0544 149.865 80.7126 147.085 80.0415C145.087 79.5595 143.066 79.575 141.038 79.5994C135.223 79.6688 130.662 82.2835 127.246 86.8073C125.3 89.3846 123.833 92.3107 122.313 95.1762C121.084 97.4912 120.407 100.012 119.455 102.429Z" fill="#F0DADA"/>
<path d="M167.929 173.534C168.585 173.549 169.184 173.796 169.728 174.11C173.52 176.301 177.637 177.581 181.883 178.509C182.097 178.556 182.293 178.685 182.497 178.777C178.527 181.495 174.504 184.143 170.602 186.956C166.367 190.009 162.107 193.042 158.137 196.438C153.429 200.465 149.342 205.036 146.526 210.623C145.037 213.577 144.382 216.734 144.348 220.031C144.347 220.147 144.343 220.263 144.348 220.379C144.481 223.37 145.307 223.967 148.154 223.022C154.167 221.024 159.546 217.843 164.533 213.995C169.263 210.346 173.869 206.535 178.611 202.9C181.603 200.604 184.834 198.64 188.053 196.674C188.647 196.311 189.269 195.985 189.828 195.574C193.804 192.647 197.989 190.045 202.227 187.52C202.972 187.077 203.682 186.56 204.36 186.018C207.043 183.87 210.064 182.256 212.959 180.435C217.931 177.305 223.299 174.939 228.425 172.11C233.7 169.198 239.085 166.464 244.707 164.246C245.892 163.778 247.05 163.236 248.204 162.693C252.358 160.737 256.666 159.205 261.064 157.905C263.342 157.231 265.558 156.372 267.866 155.778C271.075 154.951 274.314 154.363 277.606 153.989C279.506 153.774 281.353 153.964 283.086 154.628C287.891 156.469 289.173 161.71 285.715 165.301C283.059 168.059 280.066 170.416 276.892 172.603C269.479 177.711 261.501 181.878 253.916 186.701C248.247 190.304 242.527 193.857 236.803 197.385C229.365 201.97 222.555 207.364 216.836 214.046C215.555 215.542 213.893 216.681 212.664 218.236C212.064 218.996 211.252 219.615 210.996 220.618C210.92 220.681 210.842 220.743 210.765 220.805C210.804 220.843 210.869 220.918 210.878 220.912C210.959 220.857 211.03 220.787 211.104 220.721C213.255 220.013 215.266 218.973 217.272 217.959C224.104 214.502 230.934 211.039 237.674 207.408C242.269 204.932 246.794 202.334 251.52 200.099C257.244 197.393 263.08 194.989 269.137 193.135C273.792 191.71 278.435 190.234 283.27 189.488C286.483 188.992 289.69 188.396 292.957 188.628C296.465 188.876 299.684 189.815 302.06 192.684C303.888 194.891 304.386 197.512 303.227 199.407C301.618 202.041 299.042 203.111 296.062 202.385C295.209 202.178 294.42 201.807 293.655 201.393C293.028 201.055 292.395 200.856 291.664 200.899C286.902 201.179 282.167 201.658 277.624 203.216C269.613 205.962 261.551 208.585 253.829 212.102C244.413 216.388 235.396 221.414 226.607 226.86C221.574 229.979 216.507 233.036 211.08 235.449C209.103 236.328 207.098 237.042 204.902 237.086C200.731 237.17 197.565 234.557 197.581 230.396C197.601 225.058 198.728 219.956 202.195 215.575C204.818 212.261 208.036 209.603 211.171 206.856C215.665 202.918 220.23 199.051 224.848 195.265C230.859 190.336 237.2 185.871 244.018 182.04C251.751 177.695 259.441 173.246 266.867 168.375C268.214 167.493 269.463 166.463 271.052 165.282C269.339 165.37 268.139 165.9 266.936 166.372C261.694 168.432 256.618 170.812 251.645 173.488C243.218 178.023 234.822 182.619 226.277 186.939C219.538 190.346 213.203 194.443 207.499 199.472C204.58 202.045 201.154 203.959 197.959 206.17C188.556 212.675 179.12 219.131 169.676 225.573C164.708 228.962 159.36 231.604 153.599 233.356C151.435 234.014 149.213 234.475 146.948 234.654C142.513 235.003 138.739 233.498 135.512 230.518C132.46 227.7 131.376 224.114 131.775 220.099C132.238 215.429 133.661 211.039 135.988 206.934C140.481 199.009 146.467 192.388 153.272 186.386C157.886 182.315 162.591 178.352 167.192 174.269C167.451 174.037 167.684 173.779 167.929 173.534Z" fill="#F0DADA"/>
<path d="M145.641 160.265C148.81 162.482 151.979 164.699 155.148 166.915C150.346 171.065 144.999 174.455 139.591 177.711C133.227 181.543 127.097 185.732 120.768 189.606C114.627 193.366 108.264 196.715 101.214 198.507C97.4088 199.474 93.5778 199.754 89.6634 199.132C84.8928 198.374 80.6457 195.415 78.327 191.17C73.0076 181.43 76.8147 169.411 83.2411 161.293C86.9674 156.586 91.4151 152.593 96.0411 148.794C103.943 142.304 112.219 136.349 121.113 131.279C121.463 131.079 121.836 130.918 122.198 130.738C123.215 133.125 124.25 135.503 125.575 137.744C125.863 138.231 126.2 138.728 126.154 139.349C122.735 141.75 119.437 144.312 116.18 146.924C110.011 151.87 104.159 157.149 99.2232 163.366C96.0307 167.388 93.2668 171.659 91.7877 176.64C90.8984 179.635 90.6652 182.725 91.6058 185.745C91.8453 186.513 92.165 187.282 92.733 187.851C93.5519 188.672 94.7724 188.96 95.9317 188.976C98.0405 189.005 100.216 188.713 102.204 188.004C109.688 185.337 115.92 180.49 122.444 176.078C125.593 172.928 130.539 170.603 134.239 168.102C138.061 165.517 141.872 162.92 145.641 160.265Z" fill="#F0DADA"/>
<path d="M227.932 125.711C226.951 123.941 225.942 122.185 224.998 120.395C224.239 118.955 223.409 117.569 222.376 116.309C233.357 111.905 244.488 107.935 255.918 104.851C261.069 103.461 266.268 102.278 271.585 101.713C274.716 101.38 277.826 101.426 280.893 102.322C283.403 103.055 284.954 104.695 285.703 107.132C286.6 110.048 286.356 112.846 284.742 115.492C283.83 116.984 282.771 118.332 281.534 119.581C276.832 124.326 271.708 128.586 266.536 132.794C265.863 133.341 265.163 133.867 264.42 134.312C255.867 139.434 247.302 144.536 238.743 149.648C238.047 150.064 237.366 150.506 236.681 150.941C236.191 151.254 235.696 151.564 235.119 151.686C233.655 151.996 233.597 151.855 233.609 150.508C233.619 149.477 233.763 148.422 233.378 147.415C233.389 145.496 232.981 143.635 232.63 141.765C232.512 141.143 232.438 140.513 232.345 139.888C233.045 138.458 234.355 137.692 235.62 136.874C241.619 132.999 248.03 129.83 254.094 126.063C258.333 123.429 262.589 120.822 266.567 117.804C268.629 116.24 270.671 114.622 272.226 112.505C271.976 112.271 271.745 112.329 271.535 112.369C264.418 113.722 257.319 115.154 250.378 117.278C246.221 118.55 242.077 119.835 238.084 121.593C234.744 123.063 231.32 124.346 227.932 125.711Z" fill="#F0DADA"/>
<path d="M182.005 97.1368C180.26 96.4402 178.456 96.2303 176.573 96.2236C173.577 96.2127 171.339 97.5477 169.597 99.8177C167.294 102.819 166.141 106.373 165.138 109.943C163.993 114.017 163.584 118.239 162.926 122.411C162.384 125.852 161.277 129.151 159.926 132.362C159.837 132.574 159.711 132.775 159.572 132.959C159.293 133.328 159.007 133.744 158.455 133.609C158.003 133.499 157.868 133.086 157.76 132.689C157.249 130.831 157.224 128.904 157.121 127.009C156.818 121.445 157.231 115.883 157.508 110.33C157.67 107.085 157.866 103.84 157.684 100.605C157.493 97.2005 157.099 93.7987 156.605 90.4227C156.277 88.1833 155.396 86.0777 154.208 84.1264C158.981 81.7061 164.081 80.0995 169.081 78.2623C174.143 76.4028 179.37 75.0631 184.649 73.9344C189.024 72.9994 193.426 72.2998 197.889 72.0225C201.361 71.8069 204.829 71.5094 208.317 71.5369C210.238 71.5524 212.139 71.7193 214.034 71.9883C214.656 72.0764 215.287 72.2635 215.856 72.5299C216.661 72.9056 216.761 73.3109 216.259 74.0396C215.498 75.1434 214.577 76.1033 213.503 76.92C210.543 79.1734 207.419 81.1703 204.139 82.9215C201.937 84.0969 199.785 85.3568 197.696 86.7208C195.797 87.9615 193.776 88.9732 191.758 89.9962C188.857 91.4665 186.044 93.0783 183.455 95.0668C182.732 95.6209 182.18 96.2309 182.005 97.1368Z" fill="#F64068"/>
<path d="M145.641 160.265C139.29 164.739 132.929 169.198 126.374 173.376C121.484 176.493 116.928 180.106 112.037 183.229C108.943 185.204 105.665 186.771 102.205 188.004C100.141 188.74 98.06 189.041 95.8901 188.944C93.3361 188.831 92.2442 187.996 91.5248 185.548C90.6438 182.549 90.9143 179.581 91.7881 176.638C93.2672 171.658 96.0311 167.387 99.2235 163.366C104.159 157.148 110.011 151.869 116.18 146.923C119.437 144.311 122.735 141.75 126.154 139.348C126.332 139.485 126.566 139.589 126.678 139.767C129.076 143.601 132.182 146.89 134.926 150.456C136.658 152.707 139.04 154.325 141.107 156.254C142.581 157.63 144.127 158.931 145.641 160.265Z" fill="#F64068"/>
<path d="M176.655 106.269C177.347 106.545 177.382 107.185 177.576 107.705C178.769 110.879 179.18 114.227 179.682 117.548C180.109 120.372 180.511 123.224 182.134 125.635C184.737 129.5 188.277 132.075 193.111 131.813C196.947 131.604 200.292 130.055 202.48 126.618C203.726 124.66 204.917 122.672 205.987 120.611C206.508 119.609 206.628 119.588 207.518 120.239C207.891 120.513 208.255 120.809 208.578 121.14C213.174 125.859 217.322 130.902 219.925 137.043C220.889 139.318 221.195 141.747 221.387 144.17C221.759 148.884 221.101 153.435 218.757 157.628C216.46 161.736 213.023 164.562 208.731 166.395C207.557 166.897 207.509 166.898 206.87 165.688C205.001 162.151 203.169 158.593 200.934 155.266C196.015 147.946 191.049 140.665 184.831 134.344C182.179 131.648 179.437 129.076 175.985 127.4C174.996 126.919 174.035 126.406 172.946 126.138C171.613 125.81 171.572 125.661 171.791 124.314C172.154 122.077 172.876 119.927 173.398 117.728C174.065 114.909 174.725 112.087 175.435 109.278C175.699 108.228 175.914 107.134 176.655 106.269Z" fill="#F0DADA"/>
<path d="M227.933 125.711C231.32 124.346 234.745 123.063 238.085 121.593C242.078 119.835 246.221 118.551 250.379 117.278C257.32 115.154 264.419 113.722 271.536 112.369C271.746 112.329 271.977 112.271 272.227 112.506C270.672 114.622 268.63 116.241 266.568 117.804C262.59 120.822 258.333 123.429 254.095 126.063C248.031 129.83 241.62 133 235.621 136.875C234.356 137.692 233.046 138.458 232.346 139.888C231.623 137.098 231.188 134.239 230.178 131.52C229.455 129.574 228.488 127.722 227.933 125.711Z" fill="#F64068"/>
<path d="M145.818 117.118C145.361 117.335 145.013 117.253 144.682 117.164C140.82 116.128 136.868 115.524 132.965 114.685C131.595 114.39 131.52 114.37 131.642 112.973C132.021 108.638 133.284 104.589 135.759 100.968C136.872 99.3387 138.019 97.7383 139.691 96.6074C141.169 95.6072 141.756 95.7114 142.919 97.0936C143.92 98.2845 144.531 99.66 144.746 101.164C145.244 104.654 146.111 108.103 146.056 111.658C146.029 113.501 145.899 115.341 145.818 117.118Z" fill="#F0DADA"/>
<path d="M211.104 220.72C211.03 220.786 210.959 220.856 210.878 220.911C210.868 220.917 210.804 220.842 210.765 220.804C210.841 220.742 210.919 220.679 210.996 220.618L211.104 220.72Z" fill="#CA4241"/>
</g>
<defs>
<clipPath id="clip0_37_18">
<rect width="328" height="351" fill="white"/>
</clipPath>
</defs>
</svg>
