<svg width="423" height="352" viewBox="0 0 423 352" fill="none" xmlns="http://www.w3.org/2000/svg">
<path d="M422.154 185.515C421.827 181.717 420.447 178.091 417.855 175.246C411.999 168.818 400.196 164.343 402.693 156.014C411.601 160.31 421.166 148.126 418.6 138.575C416.035 129.023 406.897 122.984 398.453 117.835C394.666 115.526 390.88 113.218 387.093 110.908C376.581 62.2225 331.674 27.308 284.238 12.1205C207.628 -12.4071 88.9712 2.73167 50.2855 83.0486C43.5856 96.9588 39.6139 112.204 38.9276 127.639C28.3198 127.629 18.5626 133.929 11.5401 141.879C4.74876 149.568 -0.21984 160.092 2.54317 169.971C5.30678 179.85 18.6306 186.405 26.5031 179.828C17.8029 192.417 11.1994 207.131 14.4488 222.086C15.628 227.515 24.4239 229.224 28.3331 231.179C35.2292 234.627 28.5191 241.655 33.342 247.671C36.167 251.194 41.997 258.566 43.4297 262.849C46.3426 271.559 42.7585 281.001 42.8211 290.185C42.9216 304.824 52.582 318.114 64.8096 326.165C77.0373 334.216 91.588 337.857 105.933 340.779C182.324 356.34 262.966 354.978 336.905 330.268C347.72 326.654 358.594 322.425 367.335 315.103C376.076 307.782 382.457 296.807 381.65 285.433C381.311 280.668 379.749 275.939 380.382 271.203C380.846 267.719 382.467 264.517 383.769 261.252C388.478 249.439 389.068 236.03 385.415 223.849C384.859 221.995 384.205 220.017 384.787 218.171C385.88 214.705 390.316 213.933 393.912 213.412C403.054 212.089 412.252 208.196 417.781 200.799C421.009 196.485 422.612 190.832 422.154 185.515Z" fill="#232323"/>
<path d="M50.1241 285.963C50.1807 283.485 50.5996 281.025 51.4303 278.674C51.7578 277.747 52.1786 276.856 52.6277 275.981C53.6648 273.961 54.1073 273.083 56.2262 273.353C60.5495 273.904 66.0749 277.857 70.1899 279.527C89.0482 287.173 108.803 292.502 128.853 295.91C145.141 298.678 161.635 300.185 178.147 300.642C220.545 301.817 262.71 301.667 304.413 293.931C325.234 290.069 346.351 280.8 365.509 271.241C367.74 270.126 370.484 270.977 371.629 273.192C376.572 282.758 377.2 294.978 370.327 303.061C361.848 313.031 343.31 317.858 331.834 321.749C304.23 331.106 275.553 336.903 246.492 339.143C192.579 343.3 135.822 343.291 85.0981 324.658C74.3495 320.71 61.9021 316.601 54.9296 307.517C51.0168 302.421 49.9742 292.46 50.1241 285.963Z" fill="#F0DADA"/>
<path d="M375.091 227.704C374.667 226.835 374.206 225.991 373.27 226.229C365.45 228.215 356.457 224.104 352.492 217.118C351.049 214.576 348.174 213.218 345.327 213.877C306.1 222.964 266.448 230.648 226.291 233.465C200.756 235.257 175.028 235.05 149.593 232.01C136.907 230.494 124.301 228.271 111.887 225.242C106.884 224.022 102.286 221.174 98.7258 225.741C97.6838 227.077 94.9744 234.674 92.8362 238.931C92.1861 240.227 93.1516 241.74 94.6011 241.727C137.629 241.328 178.509 262.699 212.202 289.717C215.078 292.024 218.565 294.526 222.116 293.535C224.624 292.836 226.322 290.58 227.932 288.534C242.404 270.147 264.061 258.975 285.685 250.038C308.452 240.628 332.78 232.962 357.324 235.086C359.079 235.238 360.892 235.46 362.401 236.369C366.729 238.975 369.992 245.822 372.887 246.629L374.372 246.949C382.727 245.535 376.616 230.831 375.091 227.704ZM240.379 260.446L221.99 283.811C221.202 284.812 219.707 284.877 218.836 283.948L218.819 283.929C218.084 283.144 217.37 282.34 216.637 281.553C215.202 280.015 213.744 278.499 212.265 277.003C210.121 274.837 207.998 272.646 205.46 270.933C201.583 268.314 206.354 263.699 209.752 265.687C212.101 267.065 216.538 272.481 218.447 274.442C220.691 276.75 223.173 273.6 224.616 271.973C226.16 270.23 227.838 268.597 229.217 266.713C230.592 264.832 231.596 262.703 233.018 260.851C234.232 259.27 236.002 257.49 238.095 257.345C239.268 257.264 240.241 257.634 240.652 258.461C240.972 259.103 240.822 259.882 240.379 260.446Z" fill="white"/>
<path d="M37.6389 215.536C37.6299 215.298 37.6377 215.062 37.6618 214.828C37.8351 213.159 38.72 211.641 39.7813 210.342C47.1638 201.309 61.9215 201.836 69.9059 193.33C72.3625 190.713 73.9698 187.435 75.9231 184.424C77.3323 182.253 79.0004 180.132 81.1687 178.672C83.9232 176.818 85.3914 177.273 88.5 178.094C95.6609 179.985 103.574 178.739 109.855 174.832C111.097 174.06 112.725 174.274 113.703 175.362C114.066 175.766 114.422 176.175 114.772 176.59C115.014 176.876 115.266 177.202 115.255 177.577C115.247 177.876 115.072 178.141 114.894 178.382C109.447 185.739 97.5396 184.998 91.3117 191.707C88.394 194.85 87.0426 199.343 83.6499 201.966C81.0567 203.97 77.6767 204.561 74.6542 205.829C68.4052 208.45 63.8694 213.891 60.3648 219.767C59.7544 220.791 58.471 221.227 57.3785 220.75C56.5243 220.378 55.5178 220.239 54.5781 220.233C52.892 220.22 51.1349 220.474 49.5716 219.841C48.2033 219.288 46.9452 218.065 45.4969 218.351C44.9028 218.469 44.3935 218.833 43.8548 219.109C42.5401 219.783 40.8829 219.919 39.6085 219.173C38.3637 218.445 37.6931 216.99 37.6389 215.536Z" fill="#F64068"/>
<path d="M65.8245 225.086C65.6879 224.431 66.0876 223.796 66.4716 223.249C68.8277 219.891 71.4041 216.56 74.875 214.374C80.1645 211.041 87.3074 210.486 91.2743 205.655C92.9754 203.583 93.8639 200.947 95.5079 198.828C99.4562 193.742 106.6 192.78 112.438 190.062C115.558 188.608 118.402 186.568 120.787 184.086C122.038 182.783 122.575 181.791 124.338 181.311C124.595 181.242 124.853 181.176 125.112 181.113C126.946 180.671 128.834 180.416 130.714 180.321C131.336 180.289 131.996 180.285 132.53 180.603C133.435 181.141 133.626 182.435 133.248 183.417C132.87 184.399 132.072 185.148 131.319 185.883C126.281 190.795 122.153 196.636 119.205 203.025C118.077 205.471 116.912 208.22 114.462 209.339C112.199 210.375 109.572 209.675 107.084 209.634C103.145 209.572 99.3063 211.261 96.2886 213.794C93.271 216.327 91.0118 219.658 89.2144 223.164C87.3832 226.737 85.9704 230.568 83.5355 233.759C82.5019 235.114 81.2179 236.384 79.5818 236.861C76.7236 237.695 73.7229 235.86 71.8225 233.568" fill="#F64068"/>
<path d="M287.701 180.911C286.61 182.297 285.117 183.344 283.465 183.958C281.95 184.521 280.3 184.718 278.701 184.477C275.356 183.975 272.365 181.576 271.146 178.421C270.349 176.357 270.275 174.055 269.372 172.033C268.47 170.012 266.199 168.262 264.143 169.086C262.059 169.922 261.66 172.64 261.512 174.881C261.206 179.525 260.617 184.152 259.747 188.724C259.159 191.822 258.316 195.116 255.929 197.175C251.955 200.602 245.734 198.853 242.32 195.511C238.73 191.999 237.062 187.03 235.328 182.316C235.021 181.482 234.68 180.61 233.991 180.049C233.469 179.622 232.803 179.426 232.179 179.169C229.995 178.273 228.208 176.494 227.2 174.369C225.507 170.798 226.167 170.299 229.56 169.85C236.705 168.906 244.153 169.101 251.352 168.505C265.591 167.324 279.782 165.556 293.875 163.205C294.458 168.706 292.94 174.403 289.699 178.886M240.141 179.628C239.007 179.573 237.93 180.421 237.63 181.541C237.268 182.896 237.803 184.326 238.466 185.561C239.381 187.262 240.559 188.821 241.944 190.165C243.543 191.714 245.496 193.008 247.698 193.333C248.453 193.444 249.324 193.398 249.836 192.832C250.342 192.271 250.3 191.378 249.953 190.707C249.607 190.036 249.016 189.531 248.461 189.02C246.523 187.242 244.833 185.195 243.454 182.957C242.791 181.882 242.022 180.18 240.733 179.741C240.536 179.674 240.338 179.637 240.141 179.628Z" fill="white"/>
<path d="M20.7443 209.224C20.8008 207.623 21.206 206.095 22.1426 204.737C23.0829 203.374 24.459 202.381 25.5792 201.162C29.858 196.51 30.4503 188.639 36.0371 185.683C39.6838 183.754 44.582 184.555 47.6472 181.794C50.6684 179.072 50.4198 173.703 53.7336 171.375C57.7626 168.546 65.5423 172.476 70.7559 170.358C72.2476 169.753 73.6869 168.863 75.2953 168.804C75.9232 168.782 76.5823 168.96 77.1367 169.281C78.2684 169.937 78.2534 171.598 77.0994 172.213C70.517 175.726 68.3288 184.909 62.261 189.639C57.96 192.99 52.2227 193.717 47.2457 195.947C39.6248 199.361 33.84 206.605 32.196 214.793C31.7523 217.001 31.5706 219.332 30.0217 221.127C29.2957 221.969 28.2688 222.548 27.1576 222.547C24.7587 222.544 23.6192 220.207 22.8192 218.17C21.7116 215.351 20.6407 212.166 20.7443 209.224Z" fill="#F64068"/>
<path d="M320.675 182.106C319.392 179.921 326.051 178.154 327.296 178.243C329.687 178.414 331.943 179.363 334.245 180.032C339.972 181.696 346.345 181.734 351.308 185.041C354.358 187.073 356.635 190.213 359.937 191.804C362.553 193.064 365.543 193.221 368.354 193.947C373.475 195.27 378.051 198.598 380.888 203.062C381.985 204.787 382.827 207.027 381.842 208.818C380.331 211.565 376.004 211.003 373.729 213.16C372.579 214.251 372.085 215.934 370.828 216.899C369.26 218.102 367.049 217.818 365.115 217.417C363.617 217.106 362.018 216.698 361.029 215.532C359.369 213.578 360.205 210.644 360.087 208.083C359.937 204.82 357.931 201.704 355.022 200.218C351.56 198.449 347.364 198.988 343.669 197.784C335.539 195.133 331.405 184.732 322.987 183.232C322.311 183.111 321.575 183.033 321.067 182.571C320.894 182.414 320.764 182.26 320.675 182.106Z" fill="#F64068"/>
<path d="M392.678 202.398C392.616 202.375 392.556 202.349 392.497 202.32C392.025 202.088 391.677 201.668 391.346 201.258C388.566 197.82 385.912 194.251 382.681 191.235C379.45 188.218 375.545 185.744 371.186 185.007C369.281 184.685 367.306 184.694 365.479 184.066C362.17 182.927 359.918 179.924 357.108 177.837C351.579 173.732 344.427 173.43 337.884 172.346C336.383 172.097 329.307 171.46 329.93 169.282C330.276 168.07 332.985 167.997 333.973 167.61C335.766 166.908 337.423 165.854 338.801 164.508C339.72 163.61 340.615 162.534 341.874 162.281C343.062 162.043 344.245 162.609 345.335 163.136C350.519 165.642 355.951 167.632 361.526 169.069C364.761 169.902 368.149 170.597 370.845 172.57C373.592 174.58 375.298 177.686 377.643 180.155C381.289 183.993 386.309 186.137 390.991 188.606C395.32 190.889 399.679 193.768 401.971 198.031C402.309 198.659 402.183 199.452 401.642 199.917C399.469 201.793 396.542 202.788 393.675 202.582C393.337 202.558 392.994 202.516 392.678 202.398Z" fill="#F64068"/>
<path d="M55.2612 147.982C55.4117 146.854 55.8192 145.756 56.538 144.877C56.7571 144.608 57.0599 144.223 57.3861 144.083C57.716 143.942 58.1807 144.081 58.5172 144.142C59.5141 144.32 60.4754 144.655 61.4133 145.031C61.9039 145.228 62.3891 145.438 62.8742 145.647C85.4509 155.357 109.307 162.088 133.63 165.608C131.807 169.685 126.609 171.414 122.245 170.468C117.88 169.521 114.262 166.499 111.223 163.226C106.836 169.108 98.7374 171.938 91.6427 170.068C84.5473 168.198 78.8949 161.745 77.9763 154.466C74.3988 156.876 70.7672 159.312 66.6829 160.698C64.9311 161.293 62.9754 161.678 61.2616 160.983C58.9934 160.064 57.8436 157.587 56.9046 155.327C56.1202 153.44 55.3256 151.507 55.207 149.466C55.1787 148.977 55.1956 148.476 55.2612 147.982ZM87.7257 165.461C87.9237 165.454 88.1218 165.431 88.3186 165.393C89.4515 165.172 90.5591 164.169 90.3629 163.032C90.2539 162.403 89.7784 161.898 89.2583 161.527C88.7388 161.157 88.1537 160.879 87.6625 160.471C86.9269 159.862 86.4423 158.999 85.7398 158.352C83.5294 156.316 80.9873 159.003 81.7325 161.441C82.1449 162.789 83.2687 163.808 84.4871 164.516C85.4719 165.088 86.6012 165.507 87.7257 165.461ZM60.1016 147.608C58.5913 147.627 57.1827 148.878 57.3819 150.64C57.5192 151.846 58.3421 152.89 59.3419 153.579C60.1148 154.112 61.1177 154.474 61.9863 154.119C62.5751 153.879 63.0067 153.334 63.2077 152.731C63.4082 152.128 63.3985 151.472 63.2878 150.846C63.115 149.866 62.6768 148.904 61.9141 148.264C61.3633 147.803 60.724 147.601 60.1016 147.608Z" fill="white"/>
<path d="M367.37 162.105C366.102 161.695 365.671 160.132 366.54 159.123C367.539 157.963 368.805 156.809 369.533 155.823C370.672 154.28 371.714 152.665 372.649 150.991C373.162 150.074 374.407 149.849 375.17 150.57C377.72 152.974 379.077 156.888 382.309 158.347C384.181 159.192 386.388 159.048 388.249 159.916C390.67 161.046 392.01 163.608 393.414 165.881C396.542 170.945 400.79 175.313 405.765 178.58C408.561 180.417 411.745 182.073 412.767 185.495C413.293 187.255 412.841 189.22 411.388 190.345C409.509 191.798 407.258 190.923 405.747 189.542C404.588 188.481 403.733 187.133 402.68 185.967C398.581 181.429 392.001 180.111 387.121 176.426C383.827 173.939 381.424 170.461 378.343 167.714C374.997 164.731 371.359 163.396 367.37 162.105Z" fill="#F64068"/>
<path d="M41.7224 150.333C40.563 150.402 39.3934 150.278 38.2286 150.269C32.7514 150.23 27.5089 152.781 23.303 156.29C19.9928 159.052 17.2328 162.386 14.61 165.82C13.5439 167.216 11.3082 166.564 11.1596 164.814C11.0976 164.077 11.0964 163.328 11.1102 162.601C11.1463 160.607 11.2643 158.504 12.3521 156.832C14.0044 154.292 17.3953 153.471 19.4227 151.219C21.302 149.13 21.7433 146.133 23.1591 143.706C26.2448 138.417 32.9849 138.102 38.3912 137.124C40.9206 136.666 43.6361 136.551 45.9566 137.657C46.4208 137.878 46.8891 138.174 47.1004 138.642C47.2719 139.021 47.2491 139.456 47.2202 139.871C47.0835 141.826 46.8831 143.777 46.6188 145.719C46.4948 146.632 46.3455 147.573 45.8507 148.349C45.1115 149.509 43.7155 150.1 42.3509 150.275C42.142 150.302 41.9325 150.321 41.7224 150.333Z" fill="#F64068"/>
<path d="M167.47 176.571C165.693 176.521 163.928 175.889 162.564 174.747C162.147 177.035 161.714 179.371 160.577 181.4C157.836 186.288 150.827 188.17 146.006 185.311C142.901 183.469 140.927 180.12 139.982 176.636C139.488 174.812 137.744 167.608 139.273 166.224C140.519 165.095 148.749 167.038 150.545 167.212C158.634 167.995 166.722 168.779 174.81 169.562C174.996 169.58 175.203 169.609 175.32 169.754C175.445 169.909 175.418 170.134 175.376 170.329C174.811 172.982 172.783 175.275 170.219 176.159C169.336 176.463 168.402 176.597 167.47 176.571ZM140.703 173.288C140.677 173.792 140.692 174.226 140.738 174.508C141.041 176.389 142.164 178.123 143.758 179.168C144.483 179.644 145.517 179.952 146.161 179.371C146.5 179.065 146.627 178.591 146.707 178.14C147.216 175.261 146.407 172.176 144.551 169.917C144.261 169.563 143.934 169.22 143.513 169.041C141.538 168.2 140.804 171.294 140.703 173.288Z" fill="white"/>
<path d="M66.8094 238.975C67.5938 240.073 66.8046 241.6 65.4574 241.549C62.2026 241.425 58.9297 241.786 55.7821 242.622C53.24 243.297 50.778 244.279 48.1949 244.775C44.7234 245.44 40.8576 245.151 38.3336 242.196C36.4735 240.019 36.0533 236.984 36.8907 234.246C39.1661 226.802 47.6947 230.032 52.9998 232.056C55.6304 233.059 58.5108 233.304 61.1064 234.394C63.3849 235.35 65.3738 236.967 66.8094 238.975Z" fill="white"/>
<path d="M323.678 164.143C322.826 166.425 321.687 168.592 320.172 170.492C318.685 172.355 316.656 174.021 314.276 174.145C311.562 174.286 309.189 172.426 307.196 170.577C305.875 169.35 304.573 168.056 303.715 166.471C303.052 165.246 302.674 163.815 302.841 162.42C302.922 161.744 302.985 161.185 303.602 160.848C304.242 160.499 304.987 160.367 305.694 160.231C317.834 157.887 329.781 154.542 341.373 150.242C341.777 150.092 342.358 150.01 342.526 150.407C342.631 150.658 342.48 150.938 342.33 151.165C341.19 152.905 339.839 154.555 338.092 155.685C336.346 156.816 334.152 157.379 332.142 156.839C330.675 156.445 329.23 155.484 327.76 155.869C326.824 156.115 326.099 156.886 325.66 157.749C325.22 158.611 325.02 159.572 324.79 160.512C324.486 161.74 324.12 162.957 323.678 164.143Z" fill="white"/>
<path d="M42.242 172.752C41.3999 172.356 40.583 171.914 39.9997 171.19C38.4154 169.222 36.7136 167.534 34.2624 166.736C31.3736 165.795 28.2976 166.186 25.2962 166.895C24.4233 167.101 23.816 166.05 24.4312 165.398C25.174 164.621 25.962 163.888 26.7891 163.202C28.4426 161.829 30.2527 160.645 32.1742 159.682C34.3365 158.6 35.6951 158.226 38.0879 158.286C40.7414 158.352 46.4859 157.717 46.6653 157.844C46.8061 157.944 46.8723 158.115 46.9313 158.277C47.5676 160.028 48.2045 161.779 48.8414 163.53C48.9738 163.893 49.108 164.275 49.0563 164.658C48.9648 165.336 48.3417 165.792 47.8 166.209C45.6486 167.868 45.5751 172.66 43.1624 173.722C42.6532 173.797 42.6676 172.951 42.242 172.752Z" fill="#F64068"/>
<path d="M382.301 125.477C382.834 125.355 383.356 125.309 383.819 125.354C385.849 125.548 388.005 126.255 389.844 125.372C390.886 124.872 391.866 123.866 392.989 124.143C393.508 124.27 393.92 124.659 394.277 125.058C396.695 127.757 397.801 131.549 400.62 133.826C402.91 135.676 406.211 136.427 407.658 138.989C407.956 139.516 408.101 140.294 407.603 140.638C407.328 140.827 406.963 140.797 406.633 140.746C401.156 139.906 396.807 135.563 391.435 134.2C387.831 133.285 383.9 133.751 380.536 132.064C379.89 131.741 379.308 131.279 378.906 130.679C377.231 128.176 379.879 126.033 382.301 125.477Z" fill="#F64068"/>
<path d="M350.807 146.198C353.016 145.255 355.284 144.453 357.406 143.31C360.247 141.78 363.07 140.221 365.742 138.371C366.256 138.015 366.967 138.458 366.827 139.067C366.826 139.072 366.825 139.076 366.823 139.08C366.317 141.212 366.533 143.402 366.284 145.553C366.2 146.274 365.909 146.97 365.734 147.683C365.381 149.124 364.698 150.455 363.984 151.707C362.344 154.582 359.436 154.513 357.35 152.074C357.024 151.693 356.765 151.251 356.497 150.823C355.081 148.562 352.791 148.259 350.76 149.594C349.128 150.665 347.698 150.761 345.858 150.236C344.191 149.76 347.144 147.763 350.807 146.198Z" fill="#FBFBFB"/>
<path d="M397.764 144.414C398.558 144.872 398.252 146.077 397.335 146.084C396.688 146.089 396.025 146.074 395.415 146.207C393.963 146.525 392.858 147.679 391.525 148.335C389.595 149.288 387.262 149.134 385.247 148.377C383.231 147.621 381.473 146.316 379.784 144.984C378.302 143.816 376.829 142.592 375.749 141.044C375.055 140.049 374.209 138.413 374.243 137.045C374.259 136.395 374.946 135.977 375.53 136.264C378.688 137.815 381.599 139.37 385.213 139.952C387.653 140.344 390.186 140.397 392.477 141.318C394.371 142.08 395.997 143.398 397.764 144.414Z" fill="#F64068"/>
<path d="M373.651 101.201C360.807 65.6406 330.466 36.0866 294.476 24.4874C293.689 24.2334 250.967 11.1401 240.187 11.228C242.923 11.5638 251.077 13.7706 250.873 19.8884C250.781 22.6442 246.452 20.5409 244.5 18.5936C242.703 16.8021 240.929 13.6551 240.187 11.228C209.435 6.39776 177.451 9.70796 147.693 18.8398C151.292 21.8412 147.245 27.4244 143.434 30.1501C142.658 30.7045 141.829 31.2787 140.879 31.3456C138.765 31.493 141.247 21.84 142.781 20.3784C133.804 23.4081 132.792 22.9819 117.239 31.1283C110.151 34.8406 87.7985 47.4637 77.2647 59.9123C68.4935 70.2787 60.234 85.202 54.5659 97.3803C53.6347 99.3806 52.7034 101.382 51.7722 103.382C50.2661 106.618 48.7353 109.947 48.4963 113.508C47.8504 123.129 56.5422 130.707 65.0786 135.191C78.757 142.376 94.0053 145.971 109.169 148.934C168.129 160.456 229.041 163.419 288.416 154.272C318.927 149.572 350.691 140.7 371.802 118.176C367.613 116.082 364.084 112.69 361.825 108.586C361.066 107.206 360.421 105.571 361.73 104.065C363.076 102.518 365.459 102.434 367.057 103.723C370.496 106.496 373.148 112.238 373.033 116.635C377.1 113.585 375.378 105.983 373.651 101.201ZM76.7777 96.8626C75.0832 100.505 72.8921 104.097 69.5235 106.287C68.9444 106.664 68.2431 107.006 67.5858 106.792C67.0296 106.61 66.6593 106.058 66.5317 105.487C66.4535 105.136 66.4517 104.776 66.48 104.416C66.498 104.19 66.5275 103.965 66.5582 103.742C67.0928 99.8165 69.0425 88.7187 75.2758 90.8948C76.3967 91.286 77.3255 92.2606 77.5428 93.4278C77.7613 94.6004 77.281 95.7809 76.7777 96.8626ZM96.554 56.0333C95.4964 58.5296 88.7574 64.4036 87.7467 63.6704C86.8925 63.0509 87.9917 56.9507 88.7905 55.2754C90.0281 52.6803 92.6094 49.4616 95.4127 50.4489C95.739 50.5638 96.0333 50.739 96.2856 50.9623C96.7635 51.3855 97.091 51.9808 97.1987 52.6641C97.3667 53.7271 97.0254 54.9214 96.554 56.0333ZM113.41 91.4642C112.794 94.211 111.681 96.8458 110.142 99.2024C109.692 99.8911 109.19 100.571 108.502 101.022C107.814 101.472 106.899 101.655 106.159 101.297C105.234 100.851 104.853 99.7496 104.637 98.745C104.348 97.3948 104.195 96.0042 104.263 94.6275C104.29 94.0713 104.353 93.5181 104.458 92.9703C105.025 89.9942 107.204 86.3108 110.747 86.8267C112.028 87.0139 113.228 87.9439 113.529 89.2032C113.707 89.9443 113.577 90.7214 113.41 91.4642ZM120.912 67.1419C119.922 67.3953 118.673 67.2442 118.182 66.3473C117.984 65.9849 117.945 65.5581 117.938 65.1452C117.88 61.9975 122.683 49.3906 127.5 53.3443C128.543 54.1997 128.966 55.5956 128.897 56.9627C128.878 57.3431 128.82 57.7212 128.728 58.0842C128.303 59.7552 127.267 61.1951 126.246 62.5844C124.833 64.5095 123.226 66.5502 120.912 67.1419ZM135.405 124.295C133.672 127.67 131.008 130.562 127.786 132.566C127.574 132.698 127.349 132.829 127.1 132.841C126.413 132.872 126.047 132.049 125.923 131.373C125.092 126.845 126.858 118.067 132.742 117.825C133.953 117.776 135.224 118.308 135.863 119.337C136.224 119.917 136.353 120.567 136.329 121.236C136.292 122.273 135.888 123.356 135.405 124.295ZM145.393 86.2428C144.4 88.1727 143.041 89.9129 141.409 91.3426C140.582 92.0662 139.478 92.7464 138.448 92.3666C137.276 91.9349 136.961 90.4306 136.987 89.1816C137.051 86.1796 138.547 79.7332 142.367 79.3491C142.7 79.316 143.05 79.3286 143.419 79.3937C144.641 79.6086 145.715 80.5211 146.126 81.6919C146.648 83.1836 146.116 84.8372 145.393 86.2428ZM171.378 86.5486C171.135 89.9521 169.736 93.2972 167.347 95.7532C166.948 96.1643 166.445 96.5797 165.875 96.5153C165.141 96.4322 164.746 95.6262 164.519 94.9231C163.135 90.6407 161.819 82.0585 167.213 79.747C170.311 78.4197 171.206 81.45 171.385 84.1305C171.445 85.0371 171.424 85.9039 171.378 86.5486ZM174.26 45.6085C172.915 49.0415 170.707 52.1584 167.796 54.4212C167.232 54.86 166.62 55.2766 165.919 55.4169C165.218 55.5577 164.406 55.3609 163.997 54.7746C163.655 54.284 163.655 53.6393 163.696 53.0433C163.962 49.201 165.482 44.9289 168.187 42.1002C169.057 41.1913 170.204 40.484 171.459 40.3955C172.713 40.307 174.058 40.9463 174.562 42.0984C174.707 42.4277 174.777 42.7726 174.794 43.1242C174.832 43.9531 174.568 44.8199 174.26 45.6085ZM196.443 13.191C196.484 13.9627 196.21 14.7771 195.871 15.6241C195.049 17.6774 193.757 19.4405 192.586 21.2783C191.533 22.9325 187.999 24.063 186.284 23.4472C183.843 22.5695 183.685 19.6795 184.928 17.8213C186.028 16.1743 187.452 14.8253 188.852 13.5142C190.376 12.0864 192.228 10.9372 194.308 10.3756C195.53 10.0451 196.242 10.6922 196.437 12.1237C196.479 12.4277 196.443 12.7425 196.443 13.191ZM200.334 75.9263C199.897 75.6651 199.626 75.201 199.395 74.7459C197.315 70.6477 195.828 61.8368 201.095 59.3874C202.102 58.9191 203.368 58.8968 204.266 59.5511C205.254 60.2717 205.576 61.5894 205.715 62.8048C205.793 63.4892 205.834 64.1778 205.84 64.8665C205.868 67.9702 205.168 71.0799 203.798 73.8658C203.463 74.5466 203.072 75.2287 202.465 75.6837C201.858 76.1388 200.986 76.3152 200.334 75.9263ZM207.619 125.787C207.069 126.58 206.306 127.383 205.34 127.376C204.256 127.368 203.472 126.348 202.998 125.373C202.407 124.158 201.97 122.494 201.822 120.754C201.508 117.035 202.521 112.965 206.207 112.168C207.319 111.927 208.595 112.24 209.294 113.137C209.724 113.689 209.901 114.394 210.016 115.083C210.637 118.78 209.757 122.707 207.619 125.787ZM213.857 40.8325C212.668 40.9216 209.045 36.0981 208.473 34.4752C207.587 31.9614 207.379 28.2166 210.502 27.2101C210.866 27.0933 211.247 27.0367 211.628 27.0379C212.351 27.0397 213.075 27.2504 213.677 27.6519C214.614 28.2768 215.215 29.2971 215.645 30.3385C216.61 32.6771 215.265 40.7272 213.857 40.8325ZM238.895 83.9656C238.829 85.7131 238.47 87.4491 237.829 89.0756C237.595 89.6649 237.274 90.2922 236.683 90.5215C235.915 90.8207 235.078 90.3114 234.463 89.7625C232.196 87.7393 230.862 84.7704 230.67 81.7533C230.52 79.4009 230.989 75.0493 234.224 75.151C235.376 75.1877 236.444 75.8649 237.156 76.7721C237.868 77.6799 238.263 78.7965 238.521 79.921C238.823 81.2447 238.947 82.6087 238.895 83.9656ZM253.944 51.4126C253.444 51.5246 252.924 51.3717 252.447 51.1827C250.36 50.3543 248.58 48.7766 247.508 46.804C246.941 45.762 246.488 43.917 246.492 42.2056C246.496 39.684 247.493 37.4537 250.581 38.5186C252.107 39.0447 253.161 40.4448 253.897 41.8817C254.949 43.9356 255.549 46.2345 255.515 48.5418C255.496 49.7211 255.095 51.1538 253.944 51.4126ZM273.782 102.462C272.299 102.784 270.907 101.612 270.046 100.362C268.742 98.4668 263.816 87.0639 268.703 87.7952C269.576 87.9259 272.285 91.9506 272.955 92.5255C274.564 93.9052 275.652 95.8784 275.96 97.975C276.026 98.4193 276.056 98.8744 276.029 99.3228C276.002 99.79 275.913 100.25 275.737 100.683C275.394 101.533 274.677 102.267 273.782 102.462ZM284.874 133.109C284.273 134.041 283.375 134.351 282.395 133.89C279.131 132.356 277.285 129.527 276.187 126.322C275.241 123.56 277.604 121.024 280.251 121.623C281.325 121.866 282.265 122.488 282.901 123.392C284.453 125.596 285.307 128.062 285.455 130.759C285.442 131.592 285.336 132.394 284.874 133.109ZM288.201 43.8032C287.926 44.0578 287.529 44.1222 287.155 44.1547C284.276 44.4063 277.496 39.4197 275.366 37.4645C273.854 36.0764 273.029 31.8422 278.167 32.4399C278.357 32.4622 278.542 32.5019 278.722 32.5567C279.435 32.7722 280.08 33.2141 280.684 33.6637C283.59 35.829 286.184 38.4608 288.04 41.5729C288.454 42.2688 288.795 43.2536 288.201 43.8032ZM304.911 78.0398C304.558 78.448 303.958 78.522 303.418 78.5166C300.322 78.4859 294.684 72.3832 292.954 69.8158C291.641 67.8661 291.39 63.0853 296.452 64.0502C296.473 64.0544 296.494 64.0586 296.515 64.0629C297.537 64.2717 298.392 64.9556 299.148 65.6737C302.127 68.5065 304.232 72.2471 305.105 76.2646C305.236 76.869 305.317 77.5727 304.911 78.0398ZM323.79 54.0649C323.28 54.178 322.764 53.9354 322.305 53.685C320.227 52.5527 318.286 51.096 316.877 49.1938C316.186 48.2577 315.063 46.0581 314.814 44.1734C314.605 42.5842 315.017 41.219 316.833 41.0275C317.692 40.9366 318.544 41.2497 319.309 41.65C322.993 43.5774 325.345 47.7984 325.045 51.9459C324.983 52.826 324.652 53.874 323.79 54.0649ZM336.161 106.612C335.749 107.339 334.912 107.75 334.08 107.837C333.819 107.864 333.557 107.864 333.296 107.843C332.727 107.797 332.162 107.655 331.612 107.492C329.659 106.913 327.725 106.024 326.39 104.487C324.436 102.235 324.125 97.0552 328.245 97.1124C329.431 97.1293 330.547 97.6777 331.526 98.3477C333.36 99.6046 334.866 101.338 335.853 103.331C336.362 104.357 336.725 105.615 336.161 106.612ZM349.082 82.7436C348.586 83.366 347.726 83.558 346.931 83.5966C344.302 83.723 341.642 82.5353 339.981 80.4928C338.009 78.0657 336.424 70.8085 341.582 71.1889C342.922 71.2876 344.134 72.0268 345.15 72.9045C347.337 74.7941 348.861 77.4343 349.405 80.2719C349.455 80.532 349.494 80.8028 349.509 81.0731C349.542 81.6787 349.453 82.2795 349.082 82.7436Z" fill="#F0DADA"/>
</svg>
